<svg xmlns="http://www.w3.org/2000/svg"  viewBox="0 0 1536 512" version="1.1"><path d="M 431 55.705 C 419.046 57.774, 315.655 173.894, 323.150 176.833 C 323.617 177.017, 324 178.547, 324 180.235 C 324 183.304, 324 183.304, 328.230 178.596 C 330.557 176.007, 336.407 169.831, 341.230 164.873 C 346.054 159.915, 350.032 155.552, 350.072 155.179 C 350.112 154.805, 352.329 152.700, 355 150.500 C 357.671 148.300, 359.888 146.217, 359.928 145.871 C 360.006 145.187, 364.936 139.861, 379.547 124.675 C 384.746 119.272, 389 114.732, 389 114.587 C 389 114.442, 393.500 109.745, 399 104.148 C 404.500 98.551, 409 93.775, 409 93.535 C 409 93.295, 413.387 88.626, 418.750 83.160 C 431.868 69.788, 438 63.205, 438 62.495 C 438 62.170, 439.036 60.913, 440.302 59.702 C 441.569 58.491, 442.432 57.574, 442.221 57.665 C 442.010 57.756, 440.313 57.193, 438.451 56.415 C 436.588 55.637, 434.712 55.061, 434.282 55.136 C 433.852 55.211, 432.375 55.467, 431 55.705 M 118 178.500 C 118 200, 118 200, 130.500 200 C 143 200, 143 200, 143 250.396 C 143 300.793, 143 300.793, 146.500 303.866 C 148.425 305.556, 150 307.123, 150 307.348 C 150 307.573, 152.137 310.005, 154.750 312.753 C 157.363 315.500, 161.850 320.280, 164.722 323.374 C 167.594 326.468, 170.406 329, 170.972 329 C 171.537 329, 172 329.402, 172 329.894 C 172 330.910, 177.486 337, 178.401 337 C 178.731 337, 179 336.614, 179 336.141 C 179 335.669, 183.500 330.678, 189 325.049 C 194.500 319.421, 199 314.666, 199 314.483 C 199 314.301, 201.735 311.348, 205.077 307.921 C 211.154 301.691, 211.154 301.691, 210.459 293.351 C 209.764 285.011, 209.764 285.011, 203.132 292.240 C 191.376 305.053, 171.719 325, 170.847 325 C 170.381 325, 170 296.875, 170 262.500 C 170 200, 170 200, 182.500 200 C 195 200, 195 200, 195 178.500 C 195 157, 195 157, 156.500 157 C 118 157, 118 157, 118 178.500 M 443 209 C 443 222, 443 222, 454.577 222 C 466.153 222, 466.153 222, 465.827 268.250 C 465.500 314.500, 465.500 314.500, 475 314.500 C 484.500 314.500, 484.500 314.500, 484.760 268.250 C 485.020 222, 485.020 222, 496.010 222 C 507 222, 507 222, 507 209 C 507 196, 507 196, 475 196 C 443 196, 443 196, 443 209 M 290.323 202.349 C 289.676 202.982, 287.556 204.625, 285.612 206 C 281.094 209.195, 280.897 209.728, 280.251 220.500 C 279.712 229.500, 279.712 229.500, 289.356 219.604 C 294.660 214.161, 299 208.910, 299 207.936 C 299 204.479, 297.795 203, 294.976 203 C 293.431 203, 292.017 202.594, 291.833 202.099 C 291.650 201.603, 290.971 201.715, 290.323 202.349 M 246 247.165 C 238.162 255.641, 232.072 275.018, 237.250 275.002 C 237.662 275.001, 238 274.636, 238 274.192 C 238 273.747, 242.050 269.136, 247 263.945 C 256 254.506, 256 254.506, 255.900 248.503 C 255.707 236.840, 255.565 236.821, 246 247.165 M 69.973 269.648 C 49.475 283.308, 49.649 294.541, 70.697 316.434 C 91.398 337.967, 89.693 335.786, 86.715 336.918 C 85.266 337.469, 83.267 338.726, 82.273 339.710 C 81.280 340.695, 79.136 342.364, 77.509 343.420 C 64.500 351.865, 37 385.291, 37 392.660 C 37 393.397, 36.325 394, 35.500 394 C 34.417 394, 34 395.111, 34 398 C 34 400.889, 34.417 402, 35.500 402 C 36.371 402, 37 402.907, 37 404.164 C 37 406.264, 47.262 416.725, 80.500 448.507 C 102.259 469.313, 115.918 475.234, 115.985 463.891 C 115.997 461.845, 113.109 458.484, 102.599 448.315 C 85.575 431.841, 79.390 424.519, 72.185 412.306 C 64.114 398.627, 64.146 400.262, 71.761 390.791 C 82.330 377.645, 91.038 367.568, 92.580 366.700 C 93.361 366.260, 94 365.435, 94 364.866 C 94 363.571, 103.027 352, 104.037 352 C 104.446 352, 110.335 357.962, 117.125 365.250 C 123.915 372.538, 132.509 381.610, 136.223 385.410 C 142.976 392.321, 142.976 392.321, 143.238 429.410 C 143.500 466.500, 143.500 466.500, 156.717 466.779 C 169.935 467.058, 169.935 467.058, 170.217 426.547 C 170.500 386.037, 170.500 386.037, 173.638 382.900 C 176.776 379.762, 176.776 379.762, 166.388 369.222 C 160.675 363.425, 156 358.386, 156 358.025 C 156 357.663, 152.800 354.247, 148.888 350.434 C 144.977 346.620, 140.590 342.216, 139.138 340.648 C 137.687 339.079, 133.350 334.492, 129.500 330.454 C 125.650 326.417, 116.875 317.197, 110 309.965 C 103.125 302.733, 94.237 293.442, 90.250 289.318 C 86.263 285.194, 83 281.459, 83 281.017 C 83 280.575, 82.325 279.955, 81.500 279.638 C 79.397 278.831, 79.634 275.735, 82.032 272.687 C 85.489 268.292, 75.706 265.826, 69.973 269.648" stroke="none" fill="#000000" fill-rule="evenodd"/><path d="M 453.424 46.649 C 451.816 48.656, 449.323 51.584, 447.885 53.156 C 446.447 54.728, 443.747 57.841, 441.885 60.074 C 440.023 62.307, 436.854 65.916, 434.842 68.093 C 432.829 70.271, 430.129 73.387, 428.842 75.017 C 427.554 76.648, 426.118 77.986, 425.651 77.991 C 424.885 77.999, 419 83.777, 419 84.521 C 419 84.691, 414.752 89.256, 409.559 94.665 C 392.104 112.849, 390 115.115, 389.928 115.809 C 389.888 116.189, 387.671 118.300, 385 120.500 C 382.329 122.700, 380.112 124.816, 380.072 125.202 C 380.032 125.589, 377.750 128.155, 375 130.905 C 372.250 133.655, 370 136.116, 370 136.373 C 370 137.280, 361.911 145, 360.961 145 C 360.433 145, 360 145.409, 360 145.908 C 360 146.408, 357.975 148.900, 355.500 151.447 C 353.025 153.993, 351 156.230, 351 156.418 C 351 157.202, 342.928 165, 342.116 165 C 341.629 165, 340.559 166.012, 339.740 167.250 C 338.920 168.488, 336.619 171.220, 334.625 173.321 C 332.631 175.423, 331 177.330, 331 177.559 C 331 177.788, 329.161 179.669, 326.914 181.738 C 319.812 188.278, 314.003 194.134, 313.928 194.829 C 313.888 195.198, 311.671 197.300, 309 199.500 C 306.329 201.700, 304.112 203.803, 304.072 204.173 C 304.032 204.543, 302.762 206.184, 301.250 207.819 C 299.738 209.455, 296.475 213.163, 294 216.060 C 288.569 222.418, 276.794 233.990, 275.750 233.996 C 275.337 233.998, 275 234.384, 275 234.854 C 275 235.324, 271.496 239.261, 267.213 243.604 C 262.930 247.947, 257.193 254.161, 254.463 257.413 C 246.944 266.372, 240.432 273, 239.150 273 C 238.517 273, 238 273.675, 238 274.500 C 238 275.325, 237.629 275.888, 237.177 275.750 C 236.724 275.613, 234.473 277.665, 232.176 280.312 C 229.878 282.958, 225.187 287.969, 221.749 291.448 C 214.162 299.128, 209 304.783, 209 305.417 C 209 305.676, 204.500 310.438, 199 316 C 193.500 321.562, 189 326.295, 189 326.518 C 189 326.741, 186.975 329.007, 184.500 331.553 C 182.025 334.100, 180 336.592, 180 337.092 C 180 339.049, 176.657 337.844, 173.901 334.894 C 172.306 333.186, 171 331.646, 171 331.471 C 171 331.297, 169.763 329.875, 168.250 328.313 C 166.738 326.751, 163.925 323.568, 162 321.241 C 160.075 318.914, 157.938 317.008, 157.250 317.005 C 156.563 317.002, 155.992 316.663, 155.982 316.250 C 155.972 315.837, 153.047 312.376, 149.482 308.559 C 145.917 304.741, 143 301.248, 143 300.796 C 143 300.344, 140.750 297.736, 138 295 C 135.250 292.264, 133 289.838, 133 289.607 C 133 289.376, 130.750 286.853, 128 284 C 125.250 281.147, 123 278.405, 123 277.906 C 123 277.408, 122.641 277, 122.201 277 C 121.415 277, 113 269.277, 113 268.555 C 113 268.351, 110.975 266.100, 108.500 263.553 C 106.025 261.007, 104 258.499, 104 257.981 C 104 255.768, 98.686 255.670, 96.921 257.849 C 95.963 259.032, 94.689 260, 94.090 260 C 93.490 260, 92.998 260.563, 92.995 261.250 C 92.993 261.938, 91.643 263.938, 89.995 265.696 C 88.348 267.453, 87 269.106, 87 269.369 C 87 269.631, 85.613 271.233, 83.918 272.928 C 79.886 276.960, 80.248 277.529, 99.500 297.459 C 103.900 302.014, 110.114 308.499, 113.309 311.870 C 116.504 315.242, 119.541 318, 120.059 318 C 120.576 318, 121 318.389, 121 318.864 C 121 319.956, 127.771 327.412, 140.250 340.061 C 145.613 345.497, 150 350.119, 150 350.332 C 150 350.546, 151.575 352.390, 153.500 354.431 C 155.425 356.472, 157 358.560, 157 359.071 C 157 359.582, 157.436 360, 157.968 360 C 159.151 360, 175 375.961, 175 377.151 C 175 377.618, 175.944 378, 177.099 378 C 179.016 378, 185 372.757, 185 371.077 C 185 370.685, 188.262 366.995, 192.250 362.877 C 201.326 353.502, 208 345.842, 208 344.799 C 208 344.360, 208.620 344, 209.379 344 C 210.137 344, 212.930 341.412, 215.586 338.250 C 219.966 333.034, 223.922 328.568, 229.500 322.542 C 232.992 318.770, 237 313.172, 237 312.067 C 237 311.480, 237.472 311, 238.048 311 C 239.133 311, 243.913 306.016, 243.968 304.827 C 243.986 304.457, 245.238 302.853, 246.750 301.263 C 248.262 299.674, 250.598 296.965, 251.941 295.245 C 253.283 293.525, 254.659 292.289, 254.998 292.499 C 255.338 292.709, 256.489 291.687, 257.558 290.230 C 260.472 286.252, 271.035 273.950, 274.741 270.217 C 276.533 268.411, 278 266.699, 278 266.412 C 278 266.126, 279.348 264.453, 280.995 262.696 C 282.643 260.938, 283.993 259.197, 283.995 258.827 C 283.998 258.457, 285.389 256.657, 287.086 254.827 C 292.441 249.054, 293 248.354, 293.007 247.416 C 293.011 246.912, 294.586 245.429, 296.507 244.121 C 298.428 242.813, 300 241.411, 300 241.007 C 300 240.182, 307.541 231.647, 313.250 226.012 C 315.313 223.976, 317 221.857, 317 221.304 C 317 220.752, 318.350 219.265, 320 218 C 321.650 216.735, 323 215.195, 323 214.577 C 323 213.959, 325.239 210.989, 327.975 207.977 C 330.712 204.964, 332.962 202.046, 332.975 201.491 C 332.989 200.935, 333.900 199.919, 335 199.232 C 336.100 198.545, 337 197.505, 337 196.920 C 337 195.582, 339.532 193, 340.845 193 C 341.389 193, 341.983 192.597, 342.167 192.103 C 342.991 189.886, 360.963 169, 362.047 169 C 362.571 169, 363 168.298, 363 167.441 C 363 166.584, 363.384 166.119, 363.854 166.410 C 364.323 166.700, 365.214 165.826, 365.832 164.469 C 366.451 163.111, 367.417 162, 367.979 162 C 368.540 162, 369 161.406, 369 160.681 C 369 159.956, 372.825 155.361, 377.500 150.471 C 382.175 145.581, 386 140.999, 386 140.290 C 386 139.580, 386.464 139, 387.031 139 C 387.599 139, 388.295 138.394, 388.579 137.654 C 388.863 136.914, 391.582 133.651, 394.622 130.404 C 397.661 127.157, 400.577 123.425, 401.102 122.111 C 401.627 120.798, 402.289 119.955, 402.573 120.240 C 403.181 120.847, 409 115.225, 409 114.030 C 409 113.581, 409.675 112.955, 410.500 112.638 C 411.325 112.322, 412 111.437, 412 110.671 C 412 109.906, 413.125 108.435, 414.500 107.403 C 415.875 106.370, 417 105.051, 417 104.472 C 417 103.892, 418.800 101.763, 421 99.740 C 423.200 97.717, 425 95.698, 425 95.252 C 425 94.806, 426.516 92.880, 428.369 90.971 C 430.222 89.062, 433.454 85.250, 435.551 82.500 C 439.859 76.851, 441.572 75, 442.493 75 C 443.234 75, 447.274 70.302, 451.237 64.831 C 452.764 62.724, 454.572 60.986, 455.256 60.969 C 455.940 60.952, 458.015 58.927, 459.867 56.469 C 461.719 54.011, 463.631 52, 464.117 52 C 466.779 52, 464.878 46.132, 462.011 45.503 C 460.368 45.142, 458.766 44.431, 458.452 43.923 C 457.468 42.330, 456.437 42.888, 453.424 46.649 M 504.451 347.803 C 498.402 352.034, 499.286 379.057, 505.512 380.247 C 508.996 380.913, 519.572 375.982, 521.444 372.819 C 523.589 369.197, 521.628 368.061, 518.426 371.070 C 517.092 372.323, 516 373.072, 516 372.734 C 516 372.395, 514.819 372.731, 513.376 373.480 C 509.721 375.376, 504.777 371.890, 507.400 369.267 C 507.720 368.946, 507.516 368.122, 506.946 367.435 C 505.826 366.085, 509.002 364.756, 516.250 363.539 C 518.655 363.135, 520 362.366, 520 361.396 C 520 360.563, 520.445 360.157, 520.989 360.493 C 521.544 360.836, 521.729 360.458, 521.411 359.629 C 520.589 357.487, 518.597 356.999, 514.825 358.016 C 506.956 360.137, 506.364 360.054, 506.364 356.838 C 506.364 354.261, 506.658 353.948, 508.621 354.441 C 509.862 354.752, 511.133 354.594, 511.445 354.089 C 511.757 353.584, 513.810 353.285, 516.006 353.424 C 518.203 353.564, 520 353.226, 520 352.673 C 520 352.119, 520.297 351.964, 520.660 352.327 C 521.023 352.690, 521.983 352.041, 522.793 350.885 C 524.900 347.877, 516.385 345.858, 511 348.089 C 509.728 348.616, 506.446 348.429, 505.974 347.803 C 505.684 347.419, 504.999 347.419, 504.451 347.803 M 542.525 347.808 C 542.326 348.007, 540.142 348.324, 537.672 348.513 C 532.072 348.940, 527 351.475, 527 353.847 C 527 355.706, 530.022 355.912, 536.026 354.462 C 538.515 353.862, 538.555 353.947, 538.705 360.176 C 539.178 379.708, 539.318 381, 540.954 381 C 544.964 381, 547.347 365.690, 544.632 357.359 C 543.847 354.950, 546.949 353.431, 552.500 353.505 C 555.777 353.550, 559.185 350.646, 558.365 348.509 C 557.902 347.303, 543.660 346.673, 542.525 347.808 M 606.398 348.165 C 606.144 348.576, 605.275 348.659, 604.468 348.349 C 603.661 348.040, 603 348.311, 603 348.952 C 603 349.593, 602.550 349.840, 602 349.500 C 601.450 349.160, 600.996 349.246, 600.991 349.691 C 600.987 350.136, 599.383 352.188, 597.428 354.250 C 595.473 356.313, 594.197 358, 594.592 358 C 594.987 358, 594.564 358.824, 593.653 359.831 C 592.741 360.838, 592.258 361.925, 592.579 362.246 C 592.900 362.566, 592.686 363.718, 592.104 364.806 C 589.331 369.987, 591.731 382.520, 595.098 380.439 C 595.594 380.133, 596 380.333, 596 380.884 C 596 382.164, 598.946 381.596, 602.892 379.556 C 604.590 378.678, 606.321 377.937, 606.740 377.909 C 607.158 377.881, 607.865 377.205, 608.311 376.408 C 608.758 375.610, 609.615 375.262, 610.216 375.633 C 610.871 376.038, 611.023 375.847, 610.595 375.155 C 610.168 374.464, 610.532 374, 611.500 374 C 612.390 374, 612.859 373.581, 612.542 373.068 C 612.226 372.556, 612.791 371.544, 613.799 370.818 C 617.938 367.841, 619.750 358.483, 617.153 353.500 C 616.292 351.850, 615.692 350.129, 615.819 349.676 C 615.946 349.222, 615.627 349.113, 615.110 349.432 C 614.594 349.751, 613.988 349.463, 613.764 348.792 C 613.323 347.469, 607.153 346.943, 606.398 348.165 M 629 347.908 C 629 348.380, 628.055 349.014, 626.899 349.316 C 625.744 349.618, 625.095 350.345, 625.457 350.931 C 625.820 351.517, 625.443 352.957, 624.620 354.132 C 623.421 355.844, 623.373 356.516, 624.379 357.521 C 625.246 358.389, 625.612 362.300, 625.566 370.221 C 625.504 381.020, 626.641 384.984, 628.450 380.270 C 628.745 379.502, 629.439 379.153, 629.993 379.496 C 631.118 380.191, 631.395 378.369, 631.040 372.605 C 630.828 369.171, 631.019 368.797, 632.650 369.451 C 634.552 370.214, 636.803 370.789, 638.417 370.923 C 638.921 370.966, 639.093 371.241, 638.798 371.535 C 638.504 371.829, 639.552 373.450, 641.128 375.137 C 642.703 376.823, 643.743 378.608, 643.437 379.102 C 642.401 380.779, 647.893 380.478, 649.500 378.770 C 650.195 378.031, 650.042 377.963, 649 378.545 C 647.778 379.228, 647.721 379.110, 648.693 377.908 C 650.115 376.149, 649.799 372.766, 648.163 372.221 C 647.523 372.008, 647 371.196, 647 370.417 C 647 369.637, 646.560 369, 646.023 369 C 645.486 369, 644.317 367.887, 643.425 366.526 C 641.728 363.936, 643.089 361, 645.988 361 C 646.609 361, 646.838 360.547, 646.496 359.993 C 646.153 359.439, 646.574 358.717, 647.431 358.388 C 648.288 358.059, 648.740 357.388, 648.435 356.895 C 648.131 356.403, 648.319 356, 648.852 356 C 652.140 356, 647.263 349.073, 643.500 348.398 C 637.663 347.349, 634 347.229, 634 348.084 C 634 348.561, 632.875 348.523, 631.500 348 C 630.125 347.477, 629 347.436, 629 347.908 M 721.462 347.939 C 721.781 348.455, 721.310 349.287, 720.415 349.788 C 716.821 351.799, 718.080 381.951, 721.701 380.561 C 722.505 380.253, 723.549 380, 724.020 380 C 724.491 380, 724.792 377.066, 724.688 373.481 C 724.545 368.532, 724.765 367.324, 725.599 368.465 C 726.203 369.292, 727.063 369.638, 727.509 369.234 C 727.955 368.831, 728.014 369.035, 727.639 369.689 C 727.265 370.342, 727.755 371.341, 728.729 371.908 C 729.703 372.475, 730.145 372.953, 729.711 372.970 C 729.276 372.986, 729.382 373.563, 729.945 374.250 C 730.509 374.938, 732.152 376.975, 733.598 378.779 C 735.681 381.377, 736.514 381.819, 737.613 380.906 C 738.376 380.273, 739.003 380.148, 739.007 380.628 C 739.010 381.107, 739.889 380.171, 740.960 378.546 C 742.046 376.899, 742.550 375.130, 742.101 374.546 C 741.657 373.971, 741.400 367.790, 741.529 360.812 C 741.768 347.871, 741.242 345.996, 737.947 348.033 C 736.980 348.630, 736.456 351.849, 736.171 358.941 C 735.819 367.709, 728 365.857, 728 357.005 C 728 356.374, 727.299 355.156, 726.442 354.300 C 725.586 353.443, 725.131 352.102, 725.431 351.319 C 725.763 350.455, 725.547 350.162, 724.881 350.573 C 724.150 351.025, 724.010 350.544, 724.460 349.125 C 725.004 347.413, 724.721 347, 723.008 347 C 721.839 347, 721.143 347.422, 721.462 347.939 M 757.032 347.809 C 757.014 348.529, 756.542 348.835, 755.981 348.488 C 754.605 347.638, 751.988 354.083, 752.937 355.986 C 753.352 356.819, 753.767 361.775, 753.858 367 C 754.093 380.357, 754.594 382.457, 757.008 380.207 C 760.296 377.144, 761.713 370.717, 759.818 367.458 C 759.512 366.931, 759.324 362.732, 759.401 358.128 C 759.491 352.808, 759.090 349.162, 758.303 348.128 C 757.435 346.988, 757.054 346.892, 757.032 347.809 M 783.499 348.011 C 782.400 348.403, 780.974 348.526, 780.331 348.286 C 778.776 347.704, 774 350.889, 774 352.508 C 774 354.363, 775.758 354.748, 782.500 354.370 C 787.374 354.097, 788.216 354.265, 786.986 355.267 C 786.154 355.945, 784.625 357.850, 783.589 359.500 C 781.593 362.679, 780.676 363.828, 776.570 368.295 C 775.156 369.833, 774 371.345, 774 371.655 C 774 371.964, 773.025 373.231, 771.833 374.470 C 767.796 378.664, 768.355 380.970, 773.265 380.379 C 783.369 379.162, 793 378.844, 793 379.727 C 793 381.605, 796.438 380.603, 798.644 378.083 C 802.156 374.073, 799.901 373.138, 787.519 373.473 C 779.051 373.703, 777.254 373.502, 777.686 372.377 C 777.976 371.620, 778.642 371, 779.166 371 C 779.690 371, 779.900 370.647, 779.634 370.216 C 779.367 369.785, 780.466 368.385, 782.075 367.104 C 783.684 365.823, 785 364.151, 785 363.387 C 785 362.624, 785.374 362, 785.831 362 C 786.288 362, 787.264 360.875, 788 359.500 C 788.736 358.125, 789.963 357, 790.728 357 C 791.493 357, 791.860 356.582, 791.544 356.072 C 790.987 355.170, 793.789 353.785, 795.207 354.262 C 796.210 354.600, 798.931 350.792, 798.967 349 C 799 347.356, 787.417 346.616, 783.499 348.011 M 817.660 348.170 C 816.812 348.645, 814.469 348.829, 812.455 348.579 C 810.440 348.329, 809.027 348.360, 809.314 348.647 C 809.601 348.934, 809.106 350.021, 808.215 351.062 C 806.687 352.846, 805.588 369.989, 807 370.001 C 807.275 370.004, 807.550 371.877, 807.611 374.164 C 807.787 380.796, 813.004 382.665, 819.485 378.418 C 820.593 377.692, 821.836 377.188, 822.247 377.299 C 823.435 377.619, 829 371.973, 829 370.447 C 829 368.895, 826.159 369.597, 824.500 371.558 C 823.373 372.890, 815.042 375.139, 814.923 374.144 C 814.881 373.790, 814.631 372.600, 814.366 371.500 C 813.009 365.850, 813.155 364.999, 815.585 364.389 C 816.911 364.057, 818.583 364.010, 819.300 364.285 C 821.976 365.312, 827.166 362.194, 826.821 359.768 C 826.591 358.147, 825.928 357.584, 824.500 357.793 C 823.400 357.954, 821.375 358.187, 820 358.311 C 818.625 358.434, 816.974 358.869, 816.331 359.277 C 814.815 360.238, 811.926 357.356, 812.613 355.567 C 812.960 354.663, 814.843 354.178, 818.103 354.152 C 825.945 354.092, 828.956 352.665, 828.979 349 C 828.989 347.291, 820.362 346.658, 817.660 348.170 M 838 348.944 C 836.786 350.204, 836.548 353.166, 836.750 364.500 C 837.055 381.525, 836.989 381, 838.833 381 C 839.658 381, 840.036 380.703, 839.673 380.339 C 839.010 379.677, 841.972 377.584, 845.250 376.399 C 846.212 376.051, 847 375.369, 847 374.883 C 847 374.398, 847.675 374, 848.500 374 C 849.325 374, 850 373.550, 850 373 C 850 372.450, 850.648 372, 851.441 372 C 852.234 372, 853.203 371.480, 853.595 370.845 C 854.078 370.065, 853.854 369.961, 852.905 370.523 C 852.132 370.980, 853.638 369.044, 856.250 366.220 C 858.862 363.396, 861 360.391, 861 359.543 C 861 358.694, 861.405 358, 861.900 358 C 862.395 358, 862.800 356.425, 862.800 354.500 C 862.800 352.167, 862.333 351, 861.400 351 C 860.630 351, 860 350.502, 860 349.893 C 860 349.284, 859.325 349.045, 858.500 349.362 C 857.675 349.678, 857 349.518, 857 349.006 C 857 348.491, 853.644 348.186, 849.500 348.325 C 845.375 348.462, 842 348.295, 842 347.954 C 842 346.774, 839.495 347.394, 838 348.944 M 926.500 349.322 C 924.241 351.904, 923.505 378.905, 925.635 381.035 C 926.777 382.177, 930.272 381.250, 929.505 380.009 C 929.239 379.578, 929.687 378.675, 930.500 378 C 931.313 377.325, 931.710 376.340, 931.383 375.810 C 931.055 375.280, 930.597 372.811, 930.364 370.323 C 929.888 365.218, 931.251 365.717, 934.396 371.799 C 935.306 373.560, 936.516 375, 937.085 375 C 937.653 375, 937.838 375.453, 937.496 376.007 C 937.153 376.561, 937.574 377.283, 938.431 377.612 C 939.288 377.941, 939.780 378.547, 939.526 378.959 C 938.910 379.954, 943.890 382.186, 945.082 381.449 C 946.524 380.558, 949.166 375, 948.147 375 C 947.642 375, 947.327 368.834, 947.435 361.035 C 947.621 347.430, 947.573 347.079, 945.563 347.422 C 944.428 347.615, 943.612 348.275, 943.750 348.887 C 943.888 349.499, 943.646 350, 943.213 350 C 942.116 350, 941.726 353.268, 941.780 361.992 C 941.822 368.648, 941.673 369.261, 940.447 367.492 C 939.689 366.396, 938.544 364.893, 937.902 364.151 C 936.272 362.264, 931.942 354, 932.585 354 C 932.876 354, 932.447 353.048, 931.632 351.885 C 930.817 350.722, 930.390 349.147, 930.682 348.385 C 931.529 346.179, 928.694 346.815, 926.500 349.322 M 960 348.031 C 960 348.564, 959.355 349, 958.567 349 C 955.930 349, 955.599 364.342, 957.894 380.234 C 958.056 381.358, 966 376.947, 966 375.732 C 966 375.146, 966.297 374.964, 966.660 375.327 C 967.023 375.690, 967.949 375.090, 968.717 373.994 C 969.485 372.897, 970.475 372, 970.917 372 C 972.147 372, 979.534 364.748, 979.250 363.818 C 979.112 363.368, 979.477 363, 980.059 363 C 980.641 363, 980.871 362.601, 980.570 362.113 C 980.269 361.626, 980.665 360.693, 981.452 360.040 C 982.238 359.388, 982.635 358.212, 982.334 357.427 C 982.032 356.642, 982.284 356, 982.893 356 C 983.502 356, 984 355.325, 984 354.500 C 984 353.675, 983.523 353, 982.941 353 C 982.359 353, 982.146 352.573, 982.469 352.050 C 982.792 351.528, 982.143 350.612, 981.028 350.015 C 979.913 349.418, 979 349.226, 979 349.587 C 979 349.949, 978.438 349.841, 977.750 349.347 C 976.276 348.288, 967.526 348.354, 964.125 349.449 C 962.613 349.936, 961.975 349.850, 962.369 349.212 C 962.710 348.661, 962.316 347.952, 961.494 347.636 C 960.672 347.321, 960 347.499, 960 348.031 M 1025.500 348.393 C 1023.850 349.083, 1022.612 349.952, 1022.750 350.324 C 1022.888 350.696, 1022.858 350.887, 1022.684 350.750 C 1022.018 350.223, 1017 356.363, 1017 357.705 C 1017 358.552, 1016.500 358.830, 1015.750 358.399 C 1015.063 358.003, 1014.820 358.034, 1015.210 358.466 C 1015.601 358.899, 1015.266 360.518, 1014.467 362.063 C 1012.724 365.434, 1013.445 367.862, 1016.360 368.445 C 1019.288 369.030, 1022 368.808, 1022 367.984 C 1022 367.127, 1028.138 367.349, 1029.610 368.259 C 1032.478 370.032, 1030.609 374.500, 1027 374.500 C 1024.733 374.500, 1023.588 374.060, 1023.750 373.250 C 1023.898 372.511, 1022.955 372, 1021.441 372 C 1020.034 372, 1019.131 372.403, 1019.435 372.895 C 1019.740 373.388, 1019.288 374.059, 1018.431 374.388 C 1017.574 374.717, 1017.153 375.439, 1017.496 375.993 C 1017.838 376.547, 1017.641 377, 1017.059 377 C 1015.590 377, 1015.734 378.877, 1017.326 380.469 C 1018.867 382.010, 1023.217 381.793, 1027.500 379.960 C 1029.150 379.255, 1030.838 378.750, 1031.250 378.839 C 1031.662 378.927, 1032 378.550, 1032 378 C 1032 377.450, 1032.702 377, 1033.559 377 C 1034.416 377, 1034.838 376.547, 1034.496 375.993 C 1034.153 375.439, 1034.574 374.717, 1035.431 374.388 C 1036.288 374.059, 1036.740 373.388, 1036.435 372.895 C 1036.131 372.403, 1036.264 372, 1036.731 372 C 1038.221 372, 1037.499 366.056, 1035.788 364.245 C 1032.438 360.697, 1030.884 359.831, 1029.199 360.574 C 1028.264 360.986, 1026.375 361.421, 1025 361.542 C 1023.625 361.662, 1021.982 361.927, 1021.350 362.130 C 1019.118 362.848, 1021.730 355.499, 1024.296 353.845 C 1025.522 353.054, 1030.249 353.807, 1030.979 354.910 C 1031.913 356.322, 1034.997 355.708, 1035.128 354.083 C 1035.198 353.212, 1035.361 351.488, 1035.491 350.250 C 1035.646 348.772, 1035.173 347.974, 1034.113 347.926 C 1033.226 347.885, 1031.600 347.691, 1030.500 347.495 C 1029.400 347.299, 1027.150 347.703, 1025.500 348.393 M 1056.065 348.138 C 1054.726 348.652, 1052.994 348.828, 1052.217 348.530 C 1050.223 347.765, 1041.908 350.757, 1040.357 352.797 C 1038.808 354.837, 1038.606 356.362, 1040 355.500 C 1040.550 355.160, 1041 355.385, 1041 356 C 1041 356.645, 1041.529 356.787, 1042.250 356.336 C 1047.848 352.835, 1051.544 354.975, 1051.630 361.768 C 1051.872 380.959, 1052.518 383.482, 1056.236 379.764 C 1058.196 377.804, 1058.889 367.993, 1057.809 357.500 C 1057.501 354.514, 1057.525 354.499, 1062.961 354.322 C 1070.169 354.086, 1075.057 348.150, 1068.250 347.899 C 1066.737 347.843, 1063.925 347.664, 1062 347.501 C 1060.075 347.338, 1057.404 347.625, 1056.065 348.138 M 1127.116 347.809 C 1127.052 348.529, 1126.549 348.839, 1125.998 348.499 C 1124.531 347.592, 1122.931 352.597, 1123.422 356.556 C 1123.655 358.438, 1123.424 360.238, 1122.907 360.558 C 1122.390 360.877, 1122.272 361.670, 1122.644 362.319 C 1123.016 362.969, 1122.977 363.191, 1122.558 362.814 C 1122.138 362.436, 1120.716 362.538, 1119.397 363.039 C 1117.883 363.615, 1117 363.591, 1117 362.975 C 1117 362.439, 1116.468 362.113, 1115.817 362.250 C 1114.001 362.634, 1111.939 357.595, 1111.837 352.525 C 1111.765 348.918, 1111.410 348.026, 1110.129 348.235 C 1106.479 348.833, 1104.280 357.496, 1106.603 362.123 C 1107.327 363.566, 1107.638 365.028, 1107.293 365.373 C 1106.949 365.718, 1107.218 366, 1107.892 366 C 1108.566 366, 1108.833 366.461, 1108.485 367.025 C 1108.136 367.588, 1108.222 367.949, 1108.676 367.827 C 1112.573 366.773, 1114.655 369.790, 1115.350 377.500 C 1115.597 380.239, 1116.234 381.603, 1117.372 381.826 C 1119.720 382.288, 1122.100 376.394, 1120.871 373.161 C 1119.886 370.569, 1120.555 367, 1122.027 367 C 1123.400 367, 1127.959 361.742, 1127.387 360.818 C 1127.109 360.368, 1127.284 360, 1127.774 360 C 1128.265 360, 1128.696 359.438, 1128.732 358.750 C 1128.768 358.063, 1129.096 355.813, 1129.460 353.750 C 1129.858 351.499, 1129.728 350, 1129.135 350 C 1128.591 350, 1127.941 349.212, 1127.689 348.250 C 1127.438 347.288, 1127.180 347.089, 1127.116 347.809 M 1198.239 348.761 C 1197.007 349.993, 1195.947 352.012, 1195.881 353.250 C 1194.807 373.600, 1195.692 383.331, 1198.412 381.073 C 1199.111 380.493, 1200.052 380.351, 1200.502 380.759 C 1200.952 381.166, 1201.026 380.985, 1200.666 380.355 C 1200.306 379.725, 1200.703 378.944, 1201.549 378.620 C 1202.735 378.164, 1202.849 377.587, 1202.047 376.089 C 1200.520 373.234, 1200.947 365.876, 1202.555 367.360 C 1203.234 367.987, 1203.584 368.841, 1203.332 369.257 C 1203.080 369.673, 1203.577 370.284, 1204.437 370.614 C 1205.296 370.944, 1206 372.080, 1206 373.138 C 1206 374.197, 1206.675 375.322, 1207.500 375.638 C 1208.325 375.955, 1209 376.840, 1209 377.604 C 1209 379.850, 1215.153 382.028, 1217 380.435 C 1219.865 377.965, 1219.147 348.533, 1216.218 348.385 C 1214.963 348.322, 1214.160 348.493, 1214.433 348.766 C 1214.706 349.039, 1214.341 350.103, 1213.621 351.131 C 1212.739 352.390, 1212.407 355.613, 1212.601 361.024 C 1212.775 365.879, 1212.516 368.819, 1211.944 368.466 C 1211.425 368.145, 1211 367.282, 1211 366.548 C 1211 365.814, 1210.325 364.955, 1209.500 364.638 C 1208.675 364.322, 1208 363.444, 1208 362.687 C 1208 361.930, 1206.901 360.032, 1205.557 358.468 C 1204.213 356.904, 1203.357 355.231, 1203.655 354.749 C 1203.952 354.268, 1203.523 353.115, 1202.701 352.187 C 1201.879 351.259, 1201.042 349.605, 1200.842 348.511 C 1200.487 346.578, 1200.415 346.585, 1198.239 348.761 M 1274.826 347.508 C 1274.621 347.713, 1271.311 348.038, 1267.470 348.231 C 1263.629 348.423, 1259.927 348.927, 1259.243 349.350 C 1258.560 349.772, 1257.577 349.857, 1257.061 349.537 C 1255.937 348.843, 1250.895 354.021, 1251.593 355.151 C 1252.011 355.827, 1257.421 355.737, 1260.500 355.002 C 1263.285 354.337, 1263.546 355.505, 1263.523 368.500 C 1263.511 375.925, 1263.635 382, 1263.800 382 C 1268.770 382, 1269.837 379.108, 1269.527 366.480 C 1269.218 353.926, 1269.218 353.926, 1273.920 354.338 C 1278.392 354.729, 1282.796 353.130, 1281.318 351.651 C 1280.960 351.293, 1281.192 351, 1281.833 351 C 1283.409 351, 1283.330 348.030, 1281.750 347.886 C 1281.063 347.823, 1279.307 347.629, 1277.849 347.454 C 1276.391 347.278, 1275.031 347.303, 1274.826 347.508 M 1307 347.685 C 1305.625 347.912, 1303.825 348.375, 1303 348.713 C 1302.175 349.051, 1301.249 349.366, 1300.941 349.414 C 1299.222 349.679, 1294.256 354.960, 1293.102 357.750 C 1292.362 359.538, 1291.314 361, 1290.772 361 C 1290.230 361, 1290.034 361.646, 1290.337 362.435 C 1290.640 363.225, 1290.433 364.022, 1289.877 364.208 C 1289.321 364.393, 1288.727 367.153, 1288.556 370.341 C 1287.946 381.730, 1296.348 385.161, 1305.731 377.356 C 1306.958 376.335, 1309.104 374.685, 1310.501 373.688 C 1311.898 372.691, 1312.780 371.454, 1312.462 370.938 C 1312.143 370.422, 1312.434 370, 1313.108 370 C 1313.782 370, 1314.032 369.698, 1313.663 369.330 C 1313.295 368.961, 1313.688 367.599, 1314.538 366.302 C 1315.388 365.005, 1315.832 363.537, 1315.525 363.041 C 1315.218 362.544, 1315.398 361.872, 1315.923 361.547 C 1317.356 360.662, 1314.147 350.862, 1311.742 348.776 C 1310.615 347.799, 1309.650 347.061, 1309.597 347.136 C 1309.544 347.211, 1308.375 347.458, 1307 347.685 M 1330.341 348.257 C 1330.061 348.710, 1329.045 348.832, 1328.084 348.527 C 1323.339 347.021, 1321.188 359.362, 1323.469 375 C 1323.669 376.375, 1323.871 378.288, 1323.917 379.250 C 1324.004 381.094, 1327 381.765, 1327 379.941 C 1327 379.359, 1327.418 379.140, 1327.928 379.456 C 1329.294 380.300, 1329.942 377.139, 1329.497 371.801 C 1329.093 366.963, 1331.104 364.710, 1334.146 366.590 C 1334.870 367.037, 1335.040 366.873, 1334.595 366.155 C 1334.173 365.470, 1334.517 365, 1335.441 365 C 1336.298 365, 1337.900 364.100, 1339 363 C 1340.100 361.900, 1341 361.315, 1341 361.700 C 1341 363.166, 1343.329 359.981, 1345.023 356.198 C 1347.954 349.652, 1334.108 342.163, 1330.341 348.257 M 483.361 349.225 C 483.087 349.669, 482.490 349.803, 482.036 349.522 C 481.581 349.241, 480.927 349.748, 480.581 350.649 C 480.236 351.549, 479.677 352.010, 479.339 351.673 C 478.453 350.786, 473 354.892, 473 356.446 C 473 357.166, 472.314 358.324, 471.476 359.020 C 470.638 359.716, 470.184 360.517, 470.467 360.800 C 470.751 361.084, 470.501 361.896, 469.913 362.605 C 468.180 364.692, 467.944 373.709, 469.586 375.071 C 470.364 375.717, 471 376.672, 471 377.194 C 471 378.207, 474.140 381.669, 474.679 381.250 C 474.855 381.113, 475.113 381.037, 475.250 381.081 C 476.903 381.619, 481.268 381.376, 481.670 380.725 C 482.345 379.632, 486.821 377.892, 489.892 377.528 C 493.051 377.153, 494.314 374.663, 494.265 368.903 C 494.211 362.538, 493.716 362.020, 487.819 362.153 C 481.276 362.300, 476.147 367.119, 480 369.500 C 480.550 369.840, 481 369.641, 481 369.059 C 481 367.227, 487.985 367.799, 488.711 369.690 C 489.074 370.636, 488.838 371.554, 488.174 371.775 C 487.521 371.993, 487.196 372.507, 487.450 372.919 C 487.704 373.330, 487.369 373.698, 486.706 373.736 C 486.043 373.774, 484.101 374.118, 482.392 374.499 C 479.850 375.067, 478.816 374.725, 476.715 372.624 C 474.113 370.022, 474.111 370.011, 475.286 360.832 C 475.515 359.049, 479.584 355.084, 481.403 354.872 C 486.044 354.332, 487 354.378, 487 355.137 C 487 356.845, 489.549 355.953, 490.961 353.750 C 492.846 350.807, 493.103 349.026, 491.662 348.894 C 486.551 348.428, 483.786 348.538, 483.361 349.225 M 672 348.967 C 672 349.652, 665.873 352.326, 664.750 352.130 C 664.337 352.059, 664.112 352.542, 664.250 353.205 C 664.388 353.867, 663.975 354.430, 663.333 354.455 C 662.692 354.480, 661.792 354.910, 661.333 355.410 C 660.843 355.945, 661.118 356.018, 662 355.586 C 662.825 355.182, 662.600 355.579, 661.500 356.469 C 660.400 357.358, 659.444 358.517, 659.375 359.043 C 659.306 359.569, 659.138 360.225, 659 360.500 C 658.862 360.775, 658.638 361.450, 658.500 362 C 658.362 362.550, 658.140 363.337, 658.007 363.750 C 657.873 364.163, 657.816 364.837, 657.882 365.250 C 657.947 365.663, 657.659 366, 657.242 366 C 655.565 366, 656.755 376.123, 658.631 377.822 C 662.451 381.281, 665.828 382.141, 669.048 380.475 C 670.672 379.635, 672 379.240, 672 379.597 C 672 379.953, 672.563 379.845, 673.250 379.357 C 673.938 378.868, 675.400 378.480, 676.500 378.495 C 680.300 378.546, 682.503 374.808, 682.465 368.374 C 682.431 362.500, 682.431 362.500, 676.268 362.626 C 669.736 362.760, 667.433 364.037, 667.475 367.500 C 667.501 369.542, 667.860 369.588, 674.100 368.338 C 676.443 367.869, 676.682 368.099, 676.508 370.658 C 676.402 372.221, 675.795 373.387, 675.158 373.250 C 674.521 373.113, 674 373.450, 674 374 C 674 374.550, 673.663 374.929, 673.250 374.841 C 672.837 374.754, 671.667 375.044, 670.649 375.487 C 669.427 376.018, 668.498 375.817, 667.914 374.896 C 667.428 374.128, 667.024 373.870, 667.015 374.321 C 666.993 375.545, 664 372.320, 664 371.071 C 664 370.482, 663.638 370, 663.195 370 C 661.739 370, 662.644 361.473, 664.382 358.820 C 666.158 356.111, 673.525 353.423, 674.565 355.105 C 675.435 356.514, 676.835 356.165, 679 354 C 680.945 352.055, 681.758 348.880, 680.250 349.118 C 679.837 349.184, 679.275 349.124, 679 348.985 C 677.893 348.428, 672 348.412, 672 348.967 M 700.993 349.081 C 699.580 349.602, 697.912 351.421, 697.169 353.252 C 696.445 355.039, 694.996 358.330, 693.948 360.566 C 692.901 362.802, 691.899 365.502, 691.723 366.566 C 691.547 367.630, 690.878 369.453, 690.236 370.619 C 689.595 371.784, 689.344 373.010, 689.678 373.344 C 690.012 373.678, 689.855 374.525, 689.330 375.226 C 686.075 379.570, 689.723 382.239, 693.537 378.303 C 695.031 376.762, 695.937 376.175, 695.550 377 C 695.164 377.825, 695.688 377.554, 696.715 376.397 C 701.524 370.982, 704.670 371.740, 705.225 378.447 C 705.466 381.358, 706.218 381.648, 707.991 379.511 C 708.671 378.692, 709.534 378.212, 709.909 378.444 C 710.814 379.003, 710.673 372.819, 709.748 371.367 C 709.351 370.743, 708.750 368.493, 708.413 366.367 C 708.076 364.240, 707.282 362.169, 706.650 361.765 C 706.017 361.361, 705.893 361.024, 706.372 361.015 C 706.852 361.007, 706.798 360.438, 706.251 359.750 C 705.704 359.063, 705.384 357.712, 705.540 356.750 C 705.696 355.788, 705.488 355, 705.078 355 C 704.359 355, 704.170 354.282, 703.762 350 C 703.657 348.900, 703.555 348.036, 703.536 348.079 C 703.516 348.122, 702.372 348.573, 700.993 349.081 M 1088.294 348.843 C 1086.757 349.828, 1082.992 357.659, 1083.710 358.376 C 1084.053 358.719, 1083.782 359, 1083.108 359 C 1082.434 359, 1082.160 359.450, 1082.500 360 C 1082.840 360.550, 1082.737 361, 1082.272 361 C 1081.806 361, 1081.364 361.788, 1081.289 362.750 C 1081.214 363.712, 1080.595 365.850, 1079.915 367.500 C 1079.234 369.150, 1078.745 370.822, 1078.827 371.215 C 1078.909 371.609, 1078.463 373.184, 1077.835 374.715 C 1076.209 378.679, 1076.037 380, 1077.148 380 C 1077.681 380, 1077.780 380.563, 1077.367 381.250 C 1076.768 382.247, 1076.926 382.249, 1078.150 381.259 C 1078.994 380.576, 1079.949 380.282, 1080.273 380.606 C 1080.597 380.930, 1081.451 380.251, 1082.171 379.097 C 1082.892 377.944, 1084.025 377, 1084.691 377 C 1085.356 377, 1086.260 376.357, 1086.700 375.571 C 1087.479 374.179, 1087.862 374, 1090.059 374 C 1090.641 374, 1090.840 373.550, 1090.500 373 C 1090.160 372.450, 1090.260 372, 1090.722 372 C 1091.755 372, 1094.112 378.010, 1093.480 379.033 C 1093.228 379.440, 1093.897 380.001, 1094.965 380.281 C 1097.815 381.026, 1100.295 376.905, 1099.018 373.546 C 1098.485 372.146, 1098.376 370.993, 1098.775 370.985 C 1099.174 370.976, 1098.894 370.585, 1098.152 370.115 C 1097.411 369.646, 1096.736 368.078, 1096.652 366.631 C 1096.569 365.185, 1096.114 364.001, 1095.643 364.001 C 1095.172 364, 1095.045 363.325, 1095.362 362.500 C 1095.678 361.675, 1095.594 361, 1095.175 361 C 1094.756 361, 1093.820 358.329, 1093.096 355.065 C 1091.819 349.308, 1090.411 347.484, 1088.294 348.843 M 1172.315 349.653 C 1170.576 350.363, 1168.807 351.519, 1168.385 352.222 C 1167.849 353.113, 1168.204 353.067, 1169.558 352.073 C 1170.667 351.258, 1170.427 351.774, 1169 353.276 C 1164.643 357.860, 1163.572 359.336, 1163.298 361.132 C 1163.151 362.095, 1162.420 364.656, 1161.673 366.822 C 1158.748 375.312, 1166.522 387.436, 1170.630 380.790 C 1170.909 380.338, 1171.557 380.226, 1172.069 380.543 C 1172.581 380.859, 1173 380.615, 1173 380 C 1173 379.385, 1173.399 379.129, 1173.887 379.430 C 1174.374 379.731, 1175.329 379.308, 1176.009 378.489 C 1176.689 377.670, 1177.765 377, 1178.400 377 C 1179.499 377, 1181.238 375.305, 1185.326 370.249 C 1187.701 367.313, 1188.676 361.213, 1187.884 354.250 C 1187.287 349, 1179.530 346.709, 1172.315 349.653 M 904 351.500 C 902.708 352.875, 902.067 354.007, 902.576 354.015 C 903.084 354.024, 902.865 354.432, 902.090 354.923 C 901.314 355.414, 900.613 356.720, 900.531 357.825 C 900.450 358.929, 899.792 360.546, 899.069 361.417 C 898.346 362.287, 898.090 363, 898.500 363 C 898.910 363, 898.802 363.563, 898.260 364.250 C 897.198 365.599, 895.564 371.014, 895.842 372.268 C 895.935 372.690, 895.371 374.569, 894.588 376.443 C 892.697 380.969, 894.740 381.931, 898.867 378.458 C 900.474 377.106, 902.093 376, 902.466 376 C 902.838 376, 903.818 375.325, 904.643 374.500 C 907.089 372.054, 909.884 372.644, 910.564 375.750 C 911.917 381.921, 912.515 382.294, 915.180 378.624 C 916.538 376.753, 916.674 375.562, 915.890 372.405 C 914.584 367.141, 914.095 365.639, 911.906 360.175 C 911.394 358.896, 911.232 357.434, 911.546 356.925 C 911.861 356.416, 911.692 356, 911.170 356 C 910.649 356, 909.927 354.425, 909.566 352.500 C 908.790 348.363, 907.213 348.080, 904 351.500 M 602.292 354.864 C 599.680 356.941, 597.782 360.616, 597.334 364.467 C 597.141 366.122, 596.732 368.269, 596.424 369.238 C 596.097 370.271, 596.376 371, 597.099 371 C 597.778 371, 598.055 371.279, 597.714 371.619 C 597.374 371.960, 597.717 372.860, 598.476 373.619 C 600.052 375.195, 604 375.489, 604 374.031 C 604 373.499, 604.578 373.285, 605.285 373.556 C 607.049 374.233, 611 370.365, 611 367.961 C 611 366.882, 611.450 366, 612 366 C 614.800 366, 611.661 355.366, 608.551 354.315 C 605.034 353.127, 604.407 353.182, 602.292 354.864 M 1329.549 354.946 C 1327.212 357.528, 1328.172 362.566, 1330.792 361.462 C 1331.731 361.066, 1333.175 360.616, 1334 360.462 C 1337.669 359.779, 1339.903 358.695, 1340.419 357.350 C 1340.731 356.537, 1340.541 356.166, 1339.989 356.507 C 1339.445 356.843, 1339 356.444, 1339 355.621 C 1339 354.798, 1338.213 354.173, 1337.250 354.234 C 1336.287 354.294, 1334.563 354.034, 1333.418 353.657 C 1331.983 353.185, 1330.780 353.586, 1329.549 354.946 M 631.577 356.155 C 631.718 357.445, 631.871 359.248, 631.917 360.162 C 631.998 361.780, 632.898 361.861, 638.294 360.742 C 640.911 360.199, 644.369 356.963, 643.363 355.998 C 640.882 353.619, 631.313 353.746, 631.577 356.155 M 842.462 362.496 C 842.526 371.108, 843.202 373.243, 845.575 372.333 C 846.406 372.014, 846.854 371.520, 846.569 371.236 C 846.285 370.951, 848.089 369.427, 850.578 367.848 C 853.068 366.270, 854.853 364.571, 854.546 364.074 C 854.239 363.577, 854.521 362.993, 855.173 362.776 C 856.728 362.257, 857.158 356.036, 855.650 355.885 C 854.212 355.740, 852.654 355.383, 852 355.048 C 846.013 351.979, 842.404 354.797, 842.462 362.496 M 962.915 354.921 C 962.868 355.239, 962.907 358.650, 963.003 362.500 C 963.098 366.350, 963.164 370.288, 963.150 371.250 C 963.116 373.585, 963.680 373.473, 967.906 370.306 C 974.100 365.664, 975.965 363.573, 975.983 361.250 C 975.992 360.012, 976.466 359, 977.035 359 C 977.732 359, 977.716 358.338, 976.985 356.972 C 976.388 355.857, 975.472 355.208, 974.950 355.531 C 974.427 355.854, 973.438 355.754, 972.750 355.310 C 971.311 354.379, 963.043 354.052, 962.915 354.921 M 1170.111 357.485 C 1168.797 359.435, 1167.602 362.122, 1167.455 363.458 C 1167.309 364.793, 1166.924 366.314, 1166.601 366.837 C 1165.178 369.139, 1168.802 374.632, 1171.686 374.543 C 1176.254 374.402, 1182.774 370.062, 1181.505 368.008 C 1181.162 367.453, 1181.314 367, 1181.842 367 C 1183.450 367, 1182.068 357.708, 1180.210 356.028 C 1176.843 352.982, 1172.747 353.573, 1170.111 357.485 M 1299.250 356.115 C 1297.463 357.260, 1295.931 358.940, 1295.848 359.848 C 1295.694 361.515, 1295.390 363.080, 1295.041 364 C 1291.160 374.231, 1303.022 379.200, 1308.891 369.802 C 1314.463 360.881, 1307.420 350.883, 1299.250 356.115 M 697.882 361.050 C 697.816 362.397, 697.816 363.837, 697.882 364.250 C 697.947 364.663, 697.523 365, 696.941 365 C 696.359 365, 696.172 365.470, 696.527 366.044 C 696.882 366.618, 696.459 368.177, 695.586 369.509 C 693.647 372.468, 693.539 373.627, 695.342 372.131 C 696.080 371.519, 696.980 371.313, 697.342 371.675 C 697.704 372.037, 698 371.808, 698 371.167 C 698 370.525, 698.702 370, 699.559 370 C 700.416 370, 700.840 369.550, 700.500 369 C 700.160 368.450, 700.407 368, 701.048 368 C 701.756 368, 701.942 367.312, 701.521 366.250 C 701.140 365.288, 700.652 363.633, 700.437 362.573 C 699.780 359.332, 698.015 358.280, 697.882 361.050 M 903.931 359.750 C 903.804 360.438, 903.655 361.563, 903.600 362.250 C 903.545 362.938, 903.187 363.737, 902.804 364.026 C 902.421 364.315, 901.839 366.077, 901.510 367.942 C 901.182 369.806, 900.653 371.752, 900.336 372.265 C 900.019 372.778, 901.539 372.174, 903.713 370.923 C 907.272 368.874, 909.060 366, 906.774 366 C 906.284 366, 906.090 365.663, 906.344 365.250 C 906.599 364.837, 906.212 363.150, 905.485 361.500 C 904.757 359.850, 904.058 359.063, 903.931 359.750 M 1086.875 360.441 C 1086.584 361.742, 1086.269 362.660, 1085.137 365.500 C 1083.115 370.572, 1082.975 371.151, 1083.549 372.080 C 1083.855 372.575, 1085.067 372.084, 1086.241 370.990 C 1087.416 369.895, 1088.967 369, 1089.689 369 C 1091.242 369, 1091.432 367.385, 1089.984 366.490 C 1089.425 366.144, 1089.226 365.443, 1089.543 364.931 C 1089.859 364.419, 1089.593 364, 1088.952 364 C 1088.311 364, 1088.040 363.339, 1088.349 362.532 C 1088.659 361.725, 1088.482 360.798, 1087.956 360.473 C 1087.430 360.148, 1086.944 360.134, 1086.875 360.441" stroke="none" fill="#59a8ad" fill-rule="evenodd"/><path d="" stroke="none" fill="#57a8ad" fill-rule="evenodd"/><path d="M 226 158 C 226 158.550, 225.100 159, 224 159 C 222.889 159, 222 159.667, 222 160.500 C 222 161.325, 221.361 162, 220.579 162 C 219.798 162, 218.862 163.350, 218.500 165 C 218.138 166.650, 217.222 168, 216.466 168 C 215.667 168, 214.799 169.572, 214.394 171.750 C 214.012 173.813, 212.979 176.605, 212.099 177.955 C 210.347 180.645, 209.024 276.124, 210.494 293.770 C 211.061 300.580, 225 294.505, 225 287.447 C 225 287.275, 227.480 284.573, 230.512 281.443 C 237.376 274.356, 236.882 277.451, 237.217 239.428 C 237.517 205.429, 237.725 204, 242.379 204 C 243.216 204, 244.373 203.213, 244.950 202.250 C 245.950 200.583, 246.050 200.583, 247.050 202.250 C 247.627 203.213, 248.784 204, 249.621 204 C 253.889 204, 254.471 206.468, 255.150 227.427 C 255.508 238.467, 255.860 249.300, 255.934 251.500 C 256.067 255.500, 256.067 255.500, 259.269 251.500 C 261.031 249.300, 266.353 243.593, 271.096 238.817 C 279.720 230.134, 279.720 230.134, 280.210 220.783 C 280.787 209.752, 283.236 204, 287.357 204 C 288.182 204, 289.564 203.293, 290.429 202.429 C 291.293 201.564, 292 201.339, 292 201.929 C 292 202.518, 293.361 203, 295.025 203 C 297.580 203, 298.142 203.462, 298.645 205.974 C 299.529 210.397, 324 185.622, 324 180.304 C 324 178.487, 323.550 177, 323 177 C 322.450 177, 322 175.794, 322 174.321 C 322 171.084, 319.911 165, 318.799 165 C 318.360 165, 318 164.325, 318 163.500 C 318 162.675, 317.325 162, 316.500 162 C 315.675 162, 315 161.325, 315 160.500 C 315 159.667, 314.111 159, 313 159 C 311.900 159, 311 158.550, 311 158 C 311 157.376, 305.167 157, 295.500 157 C 285.833 157, 280 157.376, 280 158 C 280 158.550, 279.311 159, 278.469 159 C 277.626 159, 276.678 159.675, 276.362 160.500 C 276.045 161.325, 275.195 162, 274.472 162 C 273.750 162, 272.862 163.350, 272.500 165 C 272.138 166.650, 271.479 168, 271.036 168 C 270.593 168, 269.891 170.588, 269.477 173.750 C 268.723 179.500, 268.723 179.500, 267.052 172.563 C 266.132 168.748, 264.844 165.448, 264.190 165.230 C 263.535 165.012, 263 164.196, 263 163.417 C 263 162.637, 262.325 162, 261.500 162 C 260.675 162, 260 161.518, 260 160.929 C 260 157.593, 257.219 157, 241.571 157 C 231.857 157, 226 157.376, 226 158 M 723 255.500 C 723 315, 723 315, 731.987 315 C 740.974 315, 740.974 315, 741.237 279.965 C 741.500 244.931, 741.500 244.931, 748.500 271.461 C 755.753 298.949, 767.629 310.179, 772.072 293.750 C 772.704 291.413, 776.062 278.475, 779.534 265 C 785.847 240.500, 785.847 240.500, 785.924 277.750 C 786 315, 786 315, 795 315 C 804 315, 804 315, 804 255.468 C 804 179.176, 788.266 165.961, 772.487 229 C 768.012 246.875, 764.158 262.068, 763.922 262.763 C 763.685 263.457, 759.923 250.182, 755.562 233.263 C 751.201 216.343, 747.244 201.037, 746.769 199.250 C 737.825 165.584, 723 200.668, 723 255.500 M 324.750 211.724 C 323.788 212.787, 323 214.117, 323 214.679 C 323 215.241, 321.650 216.735, 320 218 C 318.350 219.265, 317 220.752, 317 221.304 C 317 221.857, 315.313 223.976, 313.250 226.012 C 307.975 231.220, 300.731 239.439, 299.250 241.898 C 298.270 243.524, 298 267.409, 298 352.287 C 298 436.836, 298.274 461.192, 299.250 463.293 C 300.673 466.358, 325.424 467.679, 326.539 464.750 C 328.201 460.383, 326.430 209.867, 324.750 211.724 M 278 265.967 C 278 266.498, 276.533 268.411, 274.741 270.217 C 271.440 273.543, 261.377 285.236, 257.244 290.548 C 246.391 304.501, 256.044 465.512, 267.750 465.781 C 280 466.062, 280 466.062, 280 365.531 C 280 299.177, 279.660 265, 279 265 C 278.450 265, 278 265.435, 278 265.967 M 233.944 317.079 C 232.738 318.772, 230.795 321.180, 229.626 322.430 C 225.087 327.283, 220.227 332.750, 215.220 338.636 C 201.155 355.169, 208.361 466, 223.500 466 C 237 466, 237 466, 237 390 C 237 348.200, 236.806 314, 236.568 314 C 236.331 314, 235.150 315.385, 233.944 317.079" stroke="none" fill="#ca1c1c" fill-rule="evenodd"/><path d="M 596.732 195.037 C 563.418 200.641, 562.176 255.769, 595.065 269.026 C 604.349 272.769, 606.589 275.570, 605.685 282.309 C 604.332 292.396, 593.001 293.581, 574.720 285.545 C 573.056 284.814, 572.958 285.632, 573.220 298.128 C 573.548 313.781, 576.460 316.335, 594 316.356 C 628.498 316.396, 637.803 257.812, 605.500 243.954 C 592.710 238.467, 592.087 238.038, 590.988 233.955 C 587.998 222.853, 600.634 217.006, 615.876 222.440 C 618.282 223.298, 620.420 224, 620.626 224 C 622.981 224, 620.694 198.116, 618.250 197.107 C 615.566 195.998, 604.492 193.901, 602.500 194.123 C 601.950 194.185, 599.354 194.596, 596.732 195.037 M 1062.332 196.851 C 1043.037 203.519, 1033.732 222.719, 1033.665 256 C 1033.570 303.006, 1052.856 323.539, 1089.250 315.179 C 1100.818 312.522, 1097.716 257, 1086 257 C 1077 257, 1077 257, 1077 273.624 C 1077 299.389, 1057.976 294.827, 1053.779 268.056 C 1048.401 233.739, 1063.567 215.506, 1090.780 223.573 C 1093.060 224.249, 1093.060 224.249, 1092.780 210.983 C 1092.500 197.718, 1092.500 197.718, 1088 196.374 C 1081.550 194.448, 1068.589 194.689, 1062.332 196.851 M 520.393 199.722 C 520.004 201.800, 514.887 228.587, 509.022 259.250 C 498.358 315, 498.358 315, 507.565 315 C 516.772 315, 516.772 315, 518.912 303.250 C 520.089 296.788, 521.301 290.262, 521.605 288.750 C 522.159 286, 522.159 286, 534.509 286 C 548.471 286, 546.690 283.814, 550.604 305.750 C 552.254 315, 552.254 315, 561.602 315 C 570.950 315, 570.950 315, 570.417 312.250 C 570.123 310.738, 565.046 284.075, 559.135 253 C 549.016 199.808, 526.244 168.492, 520.393 199.722 M 632.783 249 C 632.664 278.150, 632.552 304.813, 632.533 308.250 C 632.500 314.500, 632.500 314.500, 642.250 314.786 C 652 315.072, 652 315.072, 652 292.036 C 652 259.570, 653.059 259.567, 665.604 291.999 C 674.500 314.997, 674.500 314.997, 684.857 314.999 C 692.750 315, 695.092 314.703, 694.701 313.750 C 669.308 251.827, 670.056 257.301, 682.500 224.429 C 688.275 209.173, 693 196.536, 693 196.346 C 693 182.996, 672.051 199.158, 664.932 218 C 657.406 237.920, 656.402 240, 654.310 240 C 652 240, 652 240, 652 218 C 652 196, 652 196, 642.500 196 C 633 196, 633 196, 632.783 249 M 832 196.941 C 832 197.459, 827.050 223.749, 821 255.365 C 814.950 286.980, 810 313.332, 810 313.924 C 810 315.965, 827.778 315.312, 828.355 313.250 C 828.625 312.288, 829.858 305.762, 831.095 298.750 C 833.135 287.186, 854.772 278.026, 858.258 287.250 C 858.518 287.938, 859.769 294.462, 861.039 301.750 C 863.346 315, 863.346 315, 872.782 315 C 882.055 315, 882.208 314.961, 881.693 312.750 C 881.406 311.512, 876.297 284.738, 870.341 253.250 C 861.090 204.341, 832 161.619, 832 196.941 M 888 255.500 C 888 315, 888 315, 896.987 315 C 905.974 315, 905.974 315, 906.237 280.456 C 906.500 245.912, 906.500 245.912, 920.057 280.206 C 943.860 340.422, 953 333.578, 953 255.536 C 953 196, 953 196, 944 196 C 935 196, 935 196, 934.940 231.250 C 934.880 266.500, 934.880 266.500, 920.858 231.250 C 896.681 170.471, 888 176.878, 888 255.500 M 970.612 252.750 C 964.667 283.962, 959.566 310.738, 959.276 312.250 C 958.688 315.322, 976.115 316.776, 977.258 313.750 C 977.518 313.063, 978.772 306.525, 980.044 299.221 C 983.751 277.936, 1006.139 279.081, 1009.942 300.750 C 1012.035 312.682, 1031 325.029, 1031 314.460 C 1031 313.027, 1008.745 197.401, 1008.344 196.750 C 996.010 176.731, 980.789 199.322, 970.612 252.750 M 1106 255.500 C 1106 315, 1106 315, 1133 315 C 1160 315, 1160 315, 1160 302.500 C 1160 290, 1160 290, 1142.500 290 C 1125 290, 1125 290, 1125 278.500 C 1125 267, 1125 267, 1140 267 C 1155 267, 1155 267, 1155 254.500 C 1155 242, 1155 242, 1140 242 C 1125 242, 1125 242, 1125 232 C 1125 222, 1125 222, 1142 222 C 1159 222, 1159 222, 1159 209 C 1159 196, 1159 196, 1132.500 196 C 1106 196, 1106 196, 1106 255.500 M 1169 255.500 C 1169 315, 1169 315, 1177.987 315 C 1186.974 315, 1186.974 315, 1187.237 280.398 C 1187.500 245.796, 1187.500 245.796, 1194.474 271.898 C 1200.558 294.672, 1215.425 311.712, 1217.029 297.750 C 1221.423 259.497, 1231.868 245.855, 1231.929 278.289 C 1232 316.078, 1232 316.078, 1240.750 315.789 C 1256.722 315.262, 1254.046 196.500, 1238.062 196.500 C 1226.625 196.500, 1226.625 196.500, 1218.488 229 C 1214.013 246.875, 1210.135 262.138, 1209.870 262.917 C 1209.464 264.112, 1204.999 247.734, 1193.737 203.750 C 1183.939 165.482, 1169 196.735, 1169 255.500 M 1261 256.016 C 1261 313.917, 1313.533 359.567, 1314.780 302.750 C 1315.060 290, 1315.060 290, 1297.530 290 C 1280 290, 1280 290, 1280 278.500 C 1280 267, 1280 267, 1294.500 267 C 1309 267, 1309 267, 1309 254.500 C 1309 242, 1309 242, 1294.500 242 C 1280 242, 1280 242, 1280 232 C 1280 222, 1280 222, 1297 222 C 1314 222, 1314 222, 1314 209 C 1314 196, 1314 196, 1287.500 196 C 1261 196, 1261 196, 1261 256.016 M 1324 256.001 C 1324 316.078, 1324 316.078, 1332.750 315.789 C 1341.500 315.500, 1341.500 315.500, 1341.817 281 C 1342.135 246.500, 1342.135 246.500, 1355.851 281 C 1369.567 315.500, 1369.567 315.500, 1379.034 315.500 C 1393.454 315.500, 1394.167 196.687, 1379.750 196.211 C 1371 195.922, 1371 195.922, 1370.894 231.711 C 1370.819 256.798, 1370.486 266.752, 1369.781 265 C 1369.228 263.625, 1362.863 247.650, 1355.638 229.500 C 1332.332 170.958, 1324 177.937, 1324 256.001 M 1395 209.500 C 1395 223, 1395 223, 1406 223 C 1417 223, 1417 223, 1417 269.538 C 1417 316.075, 1417 316.075, 1426.250 315.788 C 1435.500 315.500, 1435.500 315.500, 1435.760 269.250 C 1436.020 223, 1436.020 223, 1447.010 223 C 1458 223, 1458 223, 1458 209.500 C 1458 196, 1458 196, 1426.500 196 C 1395 196, 1395 196, 1395 209.500 M 530.720 238.213 C 528.654 249.921, 526.972 259.837, 526.982 260.250 C 527.021 261.877, 542 261.091, 542 259.462 C 542 258.110, 535.296 219.750, 534.704 217.713 C 534.578 217.280, 532.785 226.505, 530.720 238.213 M 841.673 239.673 C 837.355 263.565, 836.842 261.164, 846.184 260.794 C 852.593 260.540, 852.353 226.020, 845.898 219.565 C 845.623 219.290, 843.722 228.339, 841.673 239.673 M 991.150 237.786 C 989.323 248.079, 987.593 257.512, 987.306 258.750 C 986.796 260.943, 986.991 261, 994.999 261 C 1001.153 261, 1003.097 260.686, 1002.748 259.750 C 1002.491 259.063, 1000.791 249.950, 998.970 239.500 C 997.148 229.050, 995.391 220.179, 995.065 219.786 C 994.739 219.393, 992.977 227.493, 991.150 237.786 M 337.667 327.667 C 336.105 329.228, 337.027 336.714, 339 338.500 C 340.100 339.495, 341 340.738, 341 341.261 C 341 344.500, 376.625 381.449, 383.603 385.447 C 385.471 386.517, 387 387.764, 387 388.218 C 387 389.307, 381.720 397.403, 380.723 397.842 C 380.296 398.030, 379.052 399.938, 377.959 402.081 C 374.920 408.036, 368.377 417.887, 363.398 424 C 360.935 427.025, 355.290 434, 350.854 439.500 C 346.418 445, 341.459 450.900, 339.834 452.610 C 335.238 457.448, 335.908 465.349, 340.956 465.829 C 343.112 466.034, 344.805 465.623, 345.456 464.736 C 346.030 463.954, 348.152 462.771, 350.170 462.106 C 352.189 461.442, 354.323 460.315, 354.914 459.603 C 355.505 458.891, 357.791 457.496, 359.994 456.503 C 362.197 455.509, 364 454.315, 364 453.848 C 364 453.382, 364.614 453, 365.364 453 C 366.114 453, 367.801 451.945, 369.114 450.656 C 370.426 449.367, 372.738 447.516, 374.250 446.541 C 375.762 445.567, 377 444.395, 377 443.937 C 377 443.478, 380.262 439.791, 384.250 435.743 C 390.671 429.225, 395.150 423.638, 398.578 417.870 C 399.703 415.977, 406.071 407.738, 411.895 400.638 C 418.272 392.865, 419.578 385.973, 416.088 378.500 C 413.977 373.979, 407.482 367, 405.386 367 C 404.624 367, 404 366.562, 404 366.026 C 404 365.490, 402.580 364.317, 400.844 363.419 C 399.108 362.522, 397.196 361.385, 396.594 360.893 C 395.992 360.402, 391.900 358.138, 387.500 355.863 C 383.100 353.588, 379.275 351.381, 379 350.959 C 378.725 350.537, 374.113 348.100, 368.750 345.543 C 363.387 342.986, 359 340.498, 359 340.014 C 359 339.531, 358.212 338.883, 357.250 338.576 C 356.288 338.269, 352.902 335.539, 349.726 332.509 C 344.229 327.263, 339.835 325.499, 337.667 327.667" stroke="none" fill="#279955" fill-rule="evenodd"/></svg>