<svg xmlns="http://www.w3.org/2000/svg" viewBox="0 0 1536 512" version="1.1"><path d="M 449.855 50.280 C 446.201 54.251, 442.151 58.774, 440.855 60.332 C 439.560 61.889, 435.688 66.089, 432.250 69.665 C 428.813 73.241, 426 76.273, 426 76.404 C 426 76.534, 421.387 81.390, 415.750 87.195 C 405.649 97.596, 396.630 107.064, 374 131.022 C 367.675 137.718, 358.113 147.719, 352.750 153.247 C 347.387 158.774, 343 163.360, 343 163.439 C 343 163.833, 329.971 177.635, 317.750 190.186 C 310.188 197.954, 304 204.430, 304 204.577 C 304 205.457, 285.664 224, 284.795 224 C 284.358 224, 284 224.428, 284 224.951 C 284 225.475, 278.712 231.401, 272.250 238.122 C 257.398 253.567, 255 256.103, 255 256.368 C 255 256.487, 250.387 261.340, 244.750 267.153 C 239.113 272.967, 228.875 283.656, 222 290.908 C 215.125 298.160, 206.350 307.387, 202.500 311.412 C 198.650 315.438, 191.533 322.921, 186.684 328.041 C 178.233 336.966, 170.211 336.826, 169.966 327.748 C 169.914 325.794, 152.649 308.259, 151.250 308.738 C 150.563 308.974, 150 308.454, 150 307.583 C 150 306.712, 149.550 306, 149 306 C 148.450 306, 148 305.339, 148 304.531 C 148 303.632, 147.414 303.288, 146.489 303.643 C 145.396 304.062, 145.153 303.765, 145.611 302.570 C 145.960 301.662, 145.827 301.049, 145.315 301.209 C 144.505 301.462, 133 290.590, 133 289.571 C 133 289.360, 130.750 286.853, 128 284 C 125.250 281.147, 123 278.405, 123 277.906 C 123 277.408, 122.641 277, 122.201 277 C 121.415 277, 113 269.277, 113 268.555 C 113 268.351, 110.975 266.100, 108.500 263.553 C 106.025 261.007, 104 258.499, 104 257.981 C 104 255.768, 98.686 255.670, 96.921 257.849 C 95.963 259.032, 94.967 260, 94.707 260 C 94.186 260, 86 268.044, 86 268.556 C 86 268.732, 84.650 270.355, 83 272.161 C 78.884 276.668, 79.048 277.202, 87 285.138 C 90.850 288.980, 94 292.294, 94 292.502 C 94 292.710, 98.275 297.267, 103.500 302.630 C 108.725 307.993, 113 312.465, 113 312.569 C 113 312.673, 117.500 317.412, 123 323.099 C 128.500 328.787, 133 333.557, 133 333.699 C 133 333.841, 135.475 336.394, 138.500 339.371 C 141.525 342.348, 144 345.282, 144 345.892 C 144 347.015, 145.220 348.478, 151.829 355.276 C 153.848 357.353, 155.520 359.603, 155.545 360.276 C 155.570 360.949, 156.039 361.419, 156.587 361.319 C 157.135 361.220, 160.381 363.728, 163.801 366.893 C 167.221 370.058, 170.128 372.543, 170.260 372.415 C 170.392 372.288, 171.625 373.705, 173 375.564 C 177.227 381.281, 177.836 380.932, 192.500 364.400 C 195.800 360.679, 200.782 355.130, 203.572 352.068 C 206.361 349.005, 211.488 343.125, 214.964 339 C 218.441 334.875, 222.008 330.776, 222.892 329.891 C 223.777 329.006, 226.525 325.883, 229 322.950 C 231.475 320.018, 235.075 315.961, 237 313.936 C 243.247 307.364, 249.440 300.431, 252.192 296.927 C 253.673 295.042, 255.923 292.183, 257.192 290.574 C 261.729 284.822, 271.539 273.443, 274.741 270.217 C 276.533 268.411, 278 266.793, 278 266.620 C 278 266.448, 280.363 263.876, 283.250 260.904 C 286.137 257.932, 289.625 254.021, 291 252.212 C 292.375 250.404, 294.962 247.254, 296.749 245.212 C 298.536 243.171, 299.999 241.217, 299.999 240.871 C 300 240.264, 303.139 236.753, 312.561 226.821 C 315.003 224.248, 317 221.728, 317 221.221 C 317 220.714, 318.350 219.265, 320 218 C 321.650 216.735, 322.996 215.206, 322.992 214.600 C 322.987 213.995, 325.350 211.226, 328.242 208.446 C 331.134 205.666, 334.400 202.151, 335.500 200.633 C 336.600 199.116, 340.313 194.892, 343.750 191.246 C 347.188 187.600, 350 184.476, 350 184.303 C 350 183.494, 361.523 170, 362.214 170 C 362.646 170, 363 169.355, 363 168.567 C 363 167.779, 363.900 166.849, 365 166.500 C 366.100 166.151, 367 165.396, 367 164.824 C 367 163.781, 368.876 161.466, 374.500 155.568 C 376.150 153.838, 379.740 149.739, 382.477 146.461 C 385.214 143.182, 388.026 140.140, 388.727 139.700 C 389.427 139.260, 390 138.248, 390 137.450 C 390 136.653, 390.411 136, 390.914 136 C 392.086 136, 402 123.577, 402 122.108 C 402 121.499, 402.337 120.993, 402.750 120.984 C 404.005 120.958, 413 112.510, 413 111.357 C 413 110.765, 414.125 109.435, 415.500 108.403 C 416.875 107.370, 418 105.961, 418 105.271 C 418 104.581, 418.900 103.455, 420 102.768 C 421.100 102.081, 422 100.938, 422 100.228 C 422 99.518, 422.675 98.678, 423.500 98.362 C 424.325 98.045, 425 97.182, 425 96.443 C 425 95.704, 427.025 93.407, 429.500 91.338 C 431.975 89.269, 434 87.227, 434 86.800 C 434 85.934, 436.344 82.868, 439.750 79.280 C 440.988 77.976, 442 76.405, 442 75.788 C 442 75.171, 442.252 74.919, 442.560 75.227 C 443.161 75.827, 452 66.780, 452 65.564 C 452 65.164, 453.913 62.792, 456.250 60.293 C 458.587 57.794, 461.512 54.661, 462.750 53.330 C 466.063 49.765, 465.738 46.321, 462.011 45.503 C 460.368 45.142, 458.766 44.431, 458.452 43.923 C 457.454 42.307, 456.639 42.910, 449.855 50.280 M 502.335 349.323 C 499.620 351.442, 499.009 368.756, 501.377 376.500 C 503.277 382.717, 516.922 380.628, 521.662 373.393 C 523.985 369.847, 522.725 367.229, 519.738 369.396 C 512.927 374.339, 509.274 374.651, 508.098 370.392 C 506.766 365.568, 507.041 365.264, 513.459 364.462 C 519.341 363.727, 522.688 361.236, 521.601 358.402 C 520.963 356.741, 513.125 356.863, 508.585 358.606 C 507.467 359.035, 507 358.630, 507 357.232 C 507 355.051, 510.286 354, 517.102 354 C 521.143 354, 524.974 350.385, 523.486 347.978 C 522.299 346.056, 505.121 347.149, 502.335 349.323 M 536 348.118 C 525.928 349.737, 522.629 356.789, 532.485 355.631 C 537.975 354.985, 539 358.451, 539 377.654 C 539 382.834, 540.755 383.391, 544.028 379.250 C 546.019 376.731, 546.172 375.575, 545.851 365.500 C 545.500 354.500, 545.500 354.500, 550.761 354.197 C 556.122 353.889, 560.162 350.688, 558.527 348.044 C 557.759 346.801, 543.907 346.847, 536 348.118 M 603.450 348.407 C 595.211 351.996, 587.823 368.314, 590.868 376.198 C 593.449 382.878, 600.314 383.157, 608.787 376.925 C 624.837 365.122, 620.333 341.053, 603.450 348.407 M 627.466 348.279 C 625.445 349.410, 622.585 356.362, 623.953 356.818 C 624.607 357.036, 625 361.824, 625 369.583 C 625 382.950, 625.484 383.993, 629.811 379.961 C 631.351 378.526, 632 376.748, 632 373.961 C 632 367.911, 638.633 370.523, 642.562 378.119 C 644.395 381.664, 647.391 381.860, 649.542 378.576 C 651.357 375.806, 650.343 372.938, 645.523 367.210 C 642.974 364.180, 642.974 364.180, 645.936 361.218 C 651.103 356.051, 651.244 350.902, 646.276 348.791 C 643.054 347.422, 629.649 347.057, 627.466 348.279 M 719.557 349.223 C 717.954 351.511, 717.253 374.609, 718.630 379.750 C 720.325 386.072, 726.131 380.049, 725.337 372.792 C 724.758 367.500, 724.758 367.500, 729.290 373.910 C 735.440 382.610, 739.184 383.910, 741.727 378.227 C 743.025 375.326, 742.092 346.998, 740.699 347.015 C 737.307 347.059, 736.496 348.990, 736 358.211 C 735.490 367.694, 729.727 363.466, 725.832 350.750 C 724.501 346.404, 721.964 345.786, 719.557 349.223 M 754.686 349.203 C 752.075 351.569, 752.197 378.597, 754.830 381.230 C 758.833 385.233, 761.045 377.650, 760.269 362.581 C 759.442 346.530, 758.946 345.342, 754.686 349.203 M 779.722 347.962 C 775.962 348.691, 773.092 351.236, 773.032 353.895 C 773.006 355.014, 774.395 355.173, 780.044 354.700 C 787.087 354.109, 787.087 354.109, 785.294 356.416 C 784.307 357.685, 780.216 362.908, 776.202 368.022 C 769.185 376.962, 767.116 382.184, 771.024 381.085 C 771.836 380.856, 778.318 380.597, 785.429 380.507 C 797.500 380.356, 798.455 380.201, 799.802 378.172 C 802.513 374.089, 800.091 373, 788.294 373 C 776.379 373, 778.443 368.146, 796.902 352.750 C 802.899 347.748, 793.846 345.225, 779.722 347.962 M 814.333 347.734 C 806.039 348.319, 802.435 365.677, 808.132 377.598 C 811.060 383.725, 829 377.977, 829 370.911 C 829 368.443, 826.247 368.433, 823.564 370.892 C 820.081 374.084, 815.383 374.563, 814.644 371.801 C 813.100 366.039, 813.681 365, 818.444 365 C 823.735 365, 828.782 361.481, 827.665 358.570 C 826.988 356.806, 825.256 356.815, 815.750 358.633 C 813.510 359.061, 813 358.797, 813 357.209 C 813 355.529, 813.957 355.164, 819.890 354.579 C 827.151 353.864, 830.824 351.591, 829.653 348.537 C 829.051 346.969, 826.831 346.853, 814.333 347.734 M 838.182 347.930 C 832.270 351.879, 835.586 382.600, 841.579 379.411 C 852.663 373.513, 863 361.369, 863 354.243 C 863 349.584, 843.233 344.556, 838.182 347.930 M 925.496 349.366 C 922.822 353.447, 923.763 381.395, 926.588 381.798 C 929.756 382.251, 931.336 379.530, 931.139 373.958 C 930.920 367.783, 930.845 367.767, 935.876 374.939 C 941.432 382.859, 947.158 383.829, 948.043 377 C 949.355 366.874, 947.835 346.885, 945.775 347.180 C 942.491 347.652, 941.032 351.575, 941.008 360 C 940.987 367.500, 940.987 367.500, 938.941 364.500 C 935.801 359.894, 931 350.239, 931 348.529 C 931 346.149, 927.227 346.724, 925.496 349.366 M 957.506 348.993 C 950.713 356.499, 957.033 382.429, 964.552 377.901 C 986.878 364.459, 989.472 346.713, 968.894 348.201 C 965.652 348.436, 963 348.261, 963 347.814 C 963 346.230, 959.285 347.028, 957.506 348.993 M 1024.420 348.885 C 1011.952 356.488, 1009.439 372.180, 1021.258 368.623 C 1026.954 366.909, 1032.619 369.572, 1030.515 372.975 C 1029.370 374.828, 1024 374.705, 1024 372.827 C 1024 370.184, 1021.290 370.584, 1018.452 373.646 C 1014.333 378.091, 1015.762 382.047, 1021.450 381.946 C 1034.241 381.718, 1042.829 369.241, 1034.829 362.510 C 1031.601 359.793, 1030.421 359.715, 1022.250 361.677 C 1019.292 362.387, 1019.405 360.861, 1022.589 357.077 C 1025.427 353.704, 1028.398 353.101, 1029.804 355.614 C 1031.402 358.469, 1037 354.510, 1037 350.524 C 1037 347.069, 1029.089 346.038, 1024.420 348.885 M 1051.858 348.018 C 1044.334 348.919, 1041.541 350.120, 1039.920 353.150 C 1038.367 356.052, 1040.063 356.914, 1045.321 355.896 C 1047.619 355.451, 1049.783 355.068, 1050.129 355.044 C 1050.476 355.020, 1051.084 361.075, 1051.482 368.500 C 1052.266 383.132, 1052.930 384.415, 1057.046 379.250 C 1059.086 376.691, 1059.200 375.755, 1058.689 365.750 C 1058.076 353.762, 1057.389 354.913, 1065.365 354.561 C 1068.323 354.430, 1072.371 350.622, 1071.703 348.599 C 1071.256 347.243, 1060.865 346.940, 1051.858 348.018 M 1108.135 348.865 C 1103.262 353.738, 1105.107 366.559, 1111.034 369.014 C 1113.624 370.087, 1113.994 370.824, 1114.591 376.106 C 1115.123 380.807, 1115.614 382, 1117.014 382 C 1119.951 382, 1122.116 377.580, 1121.394 373.060 C 1120.816 369.446, 1121.072 368.798, 1124.267 365.785 C 1129.287 361.050, 1131.474 352.398, 1128.633 348.513 C 1126.218 345.210, 1121.985 350.466, 1122.709 355.866 C 1123.605 362.549, 1119.795 365.084, 1114.861 361.089 C 1112.895 359.497, 1112.486 358.209, 1112.418 353.395 C 1112.328 347.025, 1111.185 345.815, 1108.135 348.865 M 1173.368 348.920 C 1161.396 354.356, 1155.428 379.062, 1165.477 381.584 C 1172.187 383.268, 1185.636 373.613, 1187.882 365.500 C 1191.634 351.944, 1184.544 343.845, 1173.368 348.920 M 1196.974 349.026 C 1193.778 352.222, 1194.381 381.341, 1197.653 381.807 C 1200.973 382.280, 1202.837 378.794, 1202.251 373.209 C 1201.697 367.932, 1201.877 368.019, 1207.373 375.697 C 1215.885 387.589, 1219.231 383.930, 1219.054 362.926 C 1218.911 346.152, 1218.985 346.553, 1216.227 347.428 C 1213.311 348.354, 1212.001 352.336, 1211.993 360.297 C 1211.987 367.500, 1211.987 367.500, 1209.941 364.500 C 1206.801 359.894, 1202 350.239, 1202 348.529 C 1202 346.371, 1199.369 346.631, 1196.974 349.026 M 1262.500 348.129 C 1257.242 348.818, 1254.905 349.640, 1253.110 351.436 C 1250.679 353.866, 1250.748 357.331, 1253.212 356.567 C 1262.584 353.657, 1263 354.164, 1263 368.488 C 1263 380.955, 1263.143 382, 1264.845 382 C 1269.008 382, 1270 379.052, 1270 366.671 C 1270 353.828, 1269.676 354.395, 1276.687 354.953 C 1279.358 355.165, 1283.242 351.504, 1282.801 349.189 C 1282.412 347.144, 1273.554 346.682, 1262.500 348.129 M 1302.655 348.459 C 1289.909 353.003, 1282.674 377.699, 1293.022 381.339 C 1296.727 382.642, 1302.989 380.557, 1307.838 376.407 C 1322.129 364.174, 1318.188 342.921, 1302.655 348.459 M 1324.250 349.705 C 1321.037 352.853, 1321.417 380.655, 1324.688 381.733 C 1327.310 382.598, 1330 378.160, 1330 372.969 C 1330 369.059, 1330.390 367.811, 1331.750 367.372 C 1343.208 363.671, 1350.026 353.999, 1344.517 349.261 C 1340.652 345.937, 1327.809 346.218, 1324.250 349.705 M 478.838 350.882 C 462.103 361.516, 466.748 388.801, 483.812 380.096 C 486.052 378.953, 488.531 378.267, 489.322 378.570 C 492.111 379.640, 494.640 374.686, 494.540 368.349 C 494.429 361.255, 484.701 358.751, 480.079 364.626 C 477.364 368.078, 478.626 369.524, 484.012 369.135 C 488.327 368.823, 489.419 370.577, 486.447 373.044 C 481.840 376.867, 475 372.861, 475 366.340 C 475 358.894, 479.497 354.401, 485.871 355.478 C 488.828 355.978, 489.961 355.700, 491.384 354.128 C 496.759 348.189, 487.034 345.674, 478.838 350.882 M 668.500 350.032 C 653.741 357.742, 651.623 381.601, 665.723 381.327 C 677.624 381.097, 683.197 376.927, 682.793 368.556 C 682.441 361.281, 674.011 358.898, 668.417 364.492 C 664.925 367.985, 666.465 370.016, 672.039 369.268 C 677.490 368.537, 677.889 372.222, 672.549 373.984 C 666.912 375.844, 663 372.580, 663 366.016 C 663 358.910, 667.977 354.342, 674.405 355.548 C 678.021 356.227, 681.424 353.459, 680.829 350.324 C 680.307 347.574, 673.513 347.413, 668.500 350.032 M 698.783 349.750 C 696.382 352.504, 695.006 355.588, 691.381 366.353 C 686.010 382.302, 686.803 383.879, 696.706 376.939 C 702.668 372.761, 704.738 373.484, 704.955 379.820 C 705.032 382.080, 709.401 380.668, 710.691 377.966 C 711.735 375.781, 711.359 373.737, 707.951 363.096 C 705.778 356.311, 704 350.139, 704 349.380 C 704 347.426, 700.601 347.667, 698.783 349.750 M 904.729 349.747 C 895.521 359.922, 890.945 385.808, 899.570 378.937 C 907.481 372.633, 908.740 372.402, 910.117 376.996 C 911.398 381.270, 912.899 381.958, 915.429 379.429 C 917.789 377.068, 917.364 373.673, 913.057 360.500 C 909.039 348.212, 907.692 346.473, 904.729 349.747 M 1087.118 349.882 C 1083.834 353.166, 1075.216 377.515, 1076.320 380.392 C 1077.204 382.696, 1077.935 382.465, 1083.877 378 C 1090.282 373.187, 1091.855 373.024, 1092.667 377.086 C 1093.431 380.903, 1095.457 381.801, 1098.037 379.466 C 1100.656 377.096, 1100.632 376.903, 1095.799 361.440 C 1091.469 347.588, 1090.587 346.413, 1087.118 349.882 M 601.702 356.020 C 598.320 358.680, 596.101 367.732, 597.876 371.627 C 600.615 377.639, 610.807 371.920, 611.707 363.868 C 612.587 355.990, 607.156 351.730, 601.702 356.020 M 632 357.500 C 632 361.550, 633.680 361.996, 639.604 359.521 C 643.759 357.785, 643.351 356.469, 638.214 355.043 C 632.503 353.457, 632 353.656, 632 357.500 M 1174 354.931 C 1168.851 356.201, 1165.170 369.170, 1168.899 372.899 C 1173.018 377.018, 1180.907 372.006, 1181.725 364.749 C 1182.513 357.754, 1179.269 353.631, 1174 354.931 M 1300.834 355.395 C 1295.772 357.918, 1293.002 370.487, 1296.905 373.221 C 1303.750 378.015, 1312.698 366.881, 1308.714 358.527 C 1306.939 354.804, 1304.202 353.716, 1300.834 355.395 M 1329.667 354.667 C 1328.295 356.038, 1328.973 361, 1330.532 361 C 1332.956 361, 1339 358.206, 1339 357.086 C 1339 354.839, 1331.451 352.882, 1329.667 354.667 M 843 363.500 C 843 373.577, 843.288 373.699, 850.521 366.693 C 858.637 358.833, 857.462 355, 846.935 355 C 843 355, 843 355, 843 363.500 M 963.268 363.077 C 963.938 372.855, 963.967 372.890, 968.470 369.455 C 979.416 361.106, 978.672 355, 966.708 355 C 962.714 355, 962.714 355, 963.268 363.077 M 902.759 366.075 C 900.731 372.418, 900.787 372.542, 904.382 369.676 C 907.064 367.538, 907.126 367.295, 905.822 364.099 C 904.459 360.759, 904.459 360.759, 902.759 366.075 M 1085.604 365.981 C 1083.427 372.034, 1083.694 372.657, 1087.194 369.706 C 1089.606 367.671, 1089.717 367.243, 1088.627 364.182 C 1087.444 360.864, 1087.444 360.864, 1085.604 365.981 M 696.782 367.003 C 695.182 372.007, 695.182 372.007, 698.091 369.935 C 701.233 367.698, 701.269 367.607, 700.370 364.250 C 699.450 360.817, 698.536 361.519, 696.782 367.003" stroke="none" fill="#59a8ad" fill-rule="evenodd"/><path d="M 449.855 50.280 C 446.201 54.251, 442.151 58.774, 440.855 60.332 C 439.560 61.889, 435.688 66.089, 432.250 69.665 C 428.813 73.241, 426 76.273, 426 76.404 C 426 76.534, 421.387 81.390, 415.750 87.195 C 405.649 97.596, 396.630 107.064, 374 131.022 C 367.675 137.718, 358.113 147.719, 352.750 153.247 C 347.387 158.774, 343 163.360, 343 163.439 C 343 163.833, 329.971 177.635, 317.750 190.186 C 310.188 197.954, 304 204.430, 304 204.577 C 304 205.457, 285.664 224, 284.795 224 C 284.358 224, 284 224.428, 284 224.951 C 284 225.475, 278.712 231.401, 272.250 238.122 C 257.398 253.567, 255 256.103, 255 256.368 C 255 256.487, 250.387 261.340, 244.750 267.153 C 239.113 272.967, 228.875 283.656, 222 290.908 C 215.125 298.160, 206.350 307.387, 202.500 311.412 C 198.650 315.438, 191.533 322.921, 186.684 328.041 C 178.233 336.966, 170.211 336.826, 169.966 327.748 C 169.914 325.794, 152.649 308.259, 151.250 308.738 C 150.563 308.974, 150 308.454, 150 307.583 C 150 306.712, 149.550 306, 149 306 C 148.450 306, 148 305.339, 148 304.531 C 148 303.632, 147.414 303.288, 146.489 303.643 C 145.396 304.062, 145.153 303.765, 145.611 302.570 C 145.960 301.662, 145.827 301.049, 145.315 301.209 C 144.505 301.462, 133 290.590, 133 289.571 C 133 289.360, 130.750 286.853, 128 284 C 125.250 281.147, 123 278.405, 123 277.906 C 123 277.408, 122.641 277, 122.201 277 C 121.415 277, 113 269.277, 113 268.555 C 113 268.351, 110.975 266.100, 108.500 263.553 C 106.025 261.007, 104 258.499, 104 257.981 C 104 255.768, 98.686 255.670, 96.921 257.849 C 95.963 259.032, 94.967 260, 94.707 260 C 94.186 260, 86 268.044, 86 268.556 C 86 268.732, 84.650 270.355, 83 272.161 C 78.884 276.668, 79.048 277.202, 87 285.138 C 90.850 288.980, 94 292.294, 94 292.502 C 94 292.710, 98.275 297.267, 103.500 302.630 C 108.725 307.993, 113 312.465, 113 312.569 C 113 312.673, 117.500 317.412, 123 323.099 C 128.500 328.787, 133 333.557, 133 333.699 C 133 333.841, 135.475 336.394, 138.500 339.371 C 141.525 342.348, 144 345.282, 144 345.892 C 144 347.015, 145.220 348.478, 151.829 355.276 C 153.848 357.353, 155.520 359.603, 155.545 360.276 C 155.570 360.949, 156.039 361.419, 156.587 361.319 C 157.135 361.220, 160.381 363.728, 163.801 366.893 C 167.221 370.058, 170.128 372.543, 170.260 372.415 C 170.392 372.288, 171.625 373.705, 173 375.564 C 177.227 381.281, 177.836 380.932, 192.500 364.400 C 195.800 360.679, 200.782 355.130, 203.572 352.068 C 206.361 349.005, 211.488 343.125, 214.964 339 C 218.441 334.875, 222.008 330.776, 222.892 329.891 C 223.777 329.006, 226.525 325.883, 229 322.950 C 231.475 320.018, 235.075 315.961, 237 313.936 C 243.247 307.364, 249.440 300.431, 252.192 296.927 C 253.673 295.042, 255.923 292.183, 257.192 290.574 C 261.729 284.822, 271.539 273.443, 274.741 270.217 C 276.533 268.411, 278 266.793, 278 266.620 C 278 266.448, 280.363 263.876, 283.250 260.904 C 286.137 257.932, 289.625 254.021, 291 252.212 C 292.375 250.404, 294.962 247.254, 296.749 245.212 C 298.536 243.171, 299.999 241.217, 299.999 240.871 C 300 240.264, 303.139 236.753, 312.561 226.821 C 315.003 224.248, 317 221.728, 317 221.221 C 317 220.714, 318.350 219.265, 320 218 C 321.650 216.735, 322.996 215.206, 322.992 214.600 C 322.987 213.995, 325.350 211.226, 328.242 208.446 C 331.134 205.666, 334.400 202.151, 335.500 200.633 C 336.600 199.116, 340.313 194.892, 343.750 191.246 C 347.188 187.600, 350 184.476, 350 184.303 C 350 183.494, 361.523 170, 362.214 170 C 362.646 170, 363 169.355, 363 168.567 C 363 167.779, 363.900 166.849, 365 166.500 C 366.100 166.151, 367 165.396, 367 164.824 C 367 163.781, 368.876 161.466, 374.500 155.568 C 376.150 153.838, 379.740 149.739, 382.477 146.461 C 385.214 143.182, 388.026 140.140, 388.727 139.700 C 389.427 139.260, 390 138.248, 390 137.450 C 390 136.653, 390.411 136, 390.914 136 C 392.086 136, 402 123.577, 402 122.108 C 402 121.499, 402.337 120.993, 402.750 120.984 C 404.005 120.958, 413 112.510, 413 111.357 C 413 110.765, 414.125 109.435, 415.500 108.403 C 416.875 107.370, 418 105.961, 418 105.271 C 418 104.581, 418.900 103.455, 420 102.768 C 421.100 102.081, 422 100.938, 422 100.228 C 422 99.518, 422.675 98.678, 423.500 98.362 C 424.325 98.045, 425 97.182, 425 96.443 C 425 95.704, 427.025 93.407, 429.500 91.338 C 431.975 89.269, 434 87.227, 434 86.800 C 434 85.934, 436.344 82.868, 439.750 79.280 C 440.988 77.976, 442 76.405, 442 75.788 C 442 75.171, 442.252 74.919, 442.560 75.227 C 443.161 75.827, 452 66.780, 452 65.564 C 452 65.164, 453.913 62.792, 456.250 60.293 C 458.587 57.794, 461.512 54.661, 462.750 53.330 C 466.063 49.765, 465.738 46.321, 462.011 45.503 C 460.368 45.142, 458.766 44.431, 458.452 43.923 C 457.454 42.307, 456.639 42.910, 449.855 50.280 M 502.335 349.323 C 499.620 351.442, 499.009 368.756, 501.377 376.500 C 503.277 382.717, 516.922 380.628, 521.662 373.393 C 523.985 369.847, 522.725 367.229, 519.738 369.396 C 512.927 374.339, 509.274 374.651, 508.098 370.392 C 506.766 365.568, 507.041 365.264, 513.459 364.462 C 519.341 363.727, 522.688 361.236, 521.601 358.402 C 520.963 356.741, 513.125 356.863, 508.585 358.606 C 507.467 359.035, 507 358.630, 507 357.232 C 507 355.051, 510.286 354, 517.102 354 C 521.143 354, 524.974 350.385, 523.486 347.978 C 522.299 346.056, 505.121 347.149, 502.335 349.323 M 536 348.118 C 525.928 349.737, 522.629 356.789, 532.485 355.631 C 537.975 354.985, 539 358.451, 539 377.654 C 539 382.834, 540.755 383.391, 544.028 379.250 C 546.019 376.731, 546.172 375.575, 545.851 365.500 C 545.500 354.500, 545.500 354.500, 550.761 354.197 C 556.122 353.889, 560.162 350.688, 558.527 348.044 C 557.759 346.801, 543.907 346.847, 536 348.118 M 603.450 348.407 C 595.211 351.996, 587.823 368.314, 590.868 376.198 C 593.449 382.878, 600.314 383.157, 608.787 376.925 C 624.837 365.122, 620.333 341.053, 603.450 348.407 M 627.466 348.279 C 625.445 349.410, 622.585 356.362, 623.953 356.818 C 624.607 357.036, 625 361.824, 625 369.583 C 625 382.950, 625.484 383.993, 629.811 379.961 C 631.351 378.526, 632 376.748, 632 373.961 C 632 367.911, 638.633 370.523, 642.562 378.119 C 644.395 381.664, 647.391 381.860, 649.542 378.576 C 651.357 375.806, 650.343 372.938, 645.523 367.210 C 642.974 364.180, 642.974 364.180, 645.936 361.218 C 651.103 356.051, 651.244 350.902, 646.276 348.791 C 643.054 347.422, 629.649 347.057, 627.466 348.279 M 719.557 349.223 C 717.954 351.511, 717.253 374.609, 718.630 379.750 C 720.325 386.072, 726.131 380.049, 725.337 372.792 C 724.758 367.500, 724.758 367.500, 729.290 373.910 C 735.440 382.610, 739.184 383.910, 741.727 378.227 C 743.025 375.326, 742.092 346.998, 740.699 347.015 C 737.307 347.059, 736.496 348.990, 736 358.211 C 735.490 367.694, 729.727 363.466, 725.832 350.750 C 724.501 346.404, 721.964 345.786, 719.557 349.223 M 754.686 349.203 C 752.075 351.569, 752.197 378.597, 754.830 381.230 C 758.833 385.233, 761.045 377.650, 760.269 362.581 C 759.442 346.530, 758.946 345.342, 754.686 349.203 M 779.722 347.962 C 775.962 348.691, 773.092 351.236, 773.032 353.895 C 773.006 355.014, 774.395 355.173, 780.044 354.700 C 787.087 354.109, 787.087 354.109, 785.294 356.416 C 784.307 357.685, 780.216 362.908, 776.202 368.022 C 769.185 376.962, 767.116 382.184, 771.024 381.085 C 771.836 380.856, 778.318 380.597, 785.429 380.507 C 797.500 380.356, 798.455 380.201, 799.802 378.172 C 802.513 374.089, 800.091 373, 788.294 373 C 776.379 373, 778.443 368.146, 796.902 352.750 C 802.899 347.748, 793.846 345.225, 779.722 347.962 M 814.333 347.734 C 806.039 348.319, 802.435 365.677, 808.132 377.598 C 811.060 383.725, 829 377.977, 829 370.911 C 829 368.443, 826.247 368.433, 823.564 370.892 C 820.081 374.084, 815.383 374.563, 814.644 371.801 C 813.100 366.039, 813.681 365, 818.444 365 C 823.735 365, 828.782 361.481, 827.665 358.570 C 826.988 356.806, 825.256 356.815, 815.750 358.633 C 813.510 359.061, 813 358.797, 813 357.209 C 813 355.529, 813.957 355.164, 819.890 354.579 C 827.151 353.864, 830.824 351.591, 829.653 348.537 C 829.051 346.969, 826.831 346.853, 814.333 347.734 M 838.182 347.930 C 832.270 351.879, 835.586 382.600, 841.579 379.411 C 852.663 373.513, 863 361.369, 863 354.243 C 863 349.584, 843.233 344.556, 838.182 347.930 M 925.496 349.366 C 922.822 353.447, 923.763 381.395, 926.588 381.798 C 929.756 382.251, 931.336 379.530, 931.139 373.958 C 930.920 367.783, 930.845 367.767, 935.876 374.939 C 941.432 382.859, 947.158 383.829, 948.043 377 C 949.355 366.874, 947.835 346.885, 945.775 347.180 C 942.491 347.652, 941.032 351.575, 941.008 360 C 940.987 367.500, 940.987 367.500, 938.941 364.500 C 935.801 359.894, 931 350.239, 931 348.529 C 931 346.149, 927.227 346.724, 925.496 349.366 M 957.506 348.993 C 950.713 356.499, 957.033 382.429, 964.552 377.901 C 986.878 364.459, 989.472 346.713, 968.894 348.201 C 965.652 348.436, 963 348.261, 963 347.814 C 963 346.230, 959.285 347.028, 957.506 348.993 M 1024.420 348.885 C 1011.952 356.488, 1009.439 372.180, 1021.258 368.623 C 1026.954 366.909, 1032.619 369.572, 1030.515 372.975 C 1029.370 374.828, 1024 374.705, 1024 372.827 C 1024 370.184, 1021.290 370.584, 1018.452 373.646 C 1014.333 378.091, 1015.762 382.047, 1021.450 381.946 C 1034.241 381.718, 1042.829 369.241, 1034.829 362.510 C 1031.601 359.793, 1030.421 359.715, 1022.250 361.677 C 1019.292 362.387, 1019.405 360.861, 1022.589 357.077 C 1025.427 353.704, 1028.398 353.101, 1029.804 355.614 C 1031.402 358.469, 1037 354.510, 1037 350.524 C 1037 347.069, 1029.089 346.038, 1024.420 348.885 M 1051.858 348.018 C 1044.334 348.919, 1041.541 350.120, 1039.920 353.150 C 1038.367 356.052, 1040.063 356.914, 1045.321 355.896 C 1047.619 355.451, 1049.783 355.068, 1050.129 355.044 C 1050.476 355.020, 1051.084 361.075, 1051.482 368.500 C 1052.266 383.132, 1052.930 384.415, 1057.046 379.250 C 1059.086 376.691, 1059.200 375.755, 1058.689 365.750 C 1058.076 353.762, 1057.389 354.913, 1065.365 354.561 C 1068.323 354.430, 1072.371 350.622, 1071.703 348.599 C 1071.256 347.243, 1060.865 346.940, 1051.858 348.018 M 1108.135 348.865 C 1103.262 353.738, 1105.107 366.559, 1111.034 369.014 C 1113.624 370.087, 1113.994 370.824, 1114.591 376.106 C 1115.123 380.807, 1115.614 382, 1117.014 382 C 1119.951 382, 1122.116 377.580, 1121.394 373.060 C 1120.816 369.446, 1121.072 368.798, 1124.267 365.785 C 1129.287 361.050, 1131.474 352.398, 1128.633 348.513 C 1126.218 345.210, 1121.985 350.466, 1122.709 355.866 C 1123.605 362.549, 1119.795 365.084, 1114.861 361.089 C 1112.895 359.497, 1112.486 358.209, 1112.418 353.395 C 1112.328 347.025, 1111.185 345.815, 1108.135 348.865 M 1173.368 348.920 C 1161.396 354.356, 1155.428 379.062, 1165.477 381.584 C 1172.187 383.268, 1185.636 373.613, 1187.882 365.500 C 1191.634 351.944, 1184.544 343.845, 1173.368 348.920 M 1196.974 349.026 C 1193.778 352.222, 1194.381 381.341, 1197.653 381.807 C 1200.973 382.280, 1202.837 378.794, 1202.251 373.209 C 1201.697 367.932, 1201.877 368.019, 1207.373 375.697 C 1215.885 387.589, 1219.231 383.930, 1219.054 362.926 C 1218.911 346.152, 1218.985 346.553, 1216.227 347.428 C 1213.311 348.354, 1212.001 352.336, 1211.993 360.297 C 1211.987 367.500, 1211.987 367.500, 1209.941 364.500 C 1206.801 359.894, 1202 350.239, 1202 348.529 C 1202 346.371, 1199.369 346.631, 1196.974 349.026 M 1262.500 348.129 C 1257.242 348.818, 1254.905 349.640, 1253.110 351.436 C 1250.679 353.866, 1250.748 357.331, 1253.212 356.567 C 1262.584 353.657, 1263 354.164, 1263 368.488 C 1263 380.955, 1263.143 382, 1264.845 382 C 1269.008 382, 1270 379.052, 1270 366.671 C 1270 353.828, 1269.676 354.395, 1276.687 354.953 C 1279.358 355.165, 1283.242 351.504, 1282.801 349.189 C 1282.412 347.144, 1273.554 346.682, 1262.500 348.129 M 1302.655 348.459 C 1289.909 353.003, 1282.674 377.699, 1293.022 381.339 C 1296.727 382.642, 1302.989 380.557, 1307.838 376.407 C 1322.129 364.174, 1318.188 342.921, 1302.655 348.459 M 1324.250 349.705 C 1321.037 352.853, 1321.417 380.655, 1324.688 381.733 C 1327.310 382.598, 1330 378.160, 1330 372.969 C 1330 369.059, 1330.390 367.811, 1331.750 367.372 C 1343.208 363.671, 1350.026 353.999, 1344.517 349.261 C 1340.652 345.937, 1327.809 346.218, 1324.250 349.705 M 478.838 350.882 C 462.103 361.516, 466.748 388.801, 483.812 380.096 C 486.052 378.953, 488.531 378.267, 489.322 378.570 C 492.111 379.640, 494.640 374.686, 494.540 368.349 C 494.429 361.255, 484.701 358.751, 480.079 364.626 C 477.364 368.078, 478.626 369.524, 484.012 369.135 C 488.327 368.823, 489.419 370.577, 486.447 373.044 C 481.840 376.867, 475 372.861, 475 366.340 C 475 358.894, 479.497 354.401, 485.871 355.478 C 488.828 355.978, 489.961 355.700, 491.384 354.128 C 496.759 348.189, 487.034 345.674, 478.838 350.882 M 668.500 350.032 C 653.741 357.742, 651.623 381.601, 665.723 381.327 C 677.624 381.097, 683.197 376.927, 682.793 368.556 C 682.441 361.281, 674.011 358.898, 668.417 364.492 C 664.925 367.985, 666.465 370.016, 672.039 369.268 C 677.490 368.537, 677.889 372.222, 672.549 373.984 C 666.912 375.844, 663 372.580, 663 366.016 C 663 358.910, 667.977 354.342, 674.405 355.548 C 678.021 356.227, 681.424 353.459, 680.829 350.324 C 680.307 347.574, 673.513 347.413, 668.500 350.032 M 698.783 349.750 C 696.382 352.504, 695.006 355.588, 691.381 366.353 C 686.010 382.302, 686.803 383.879, 696.706 376.939 C 702.668 372.761, 704.738 373.484, 704.955 379.820 C 705.032 382.080, 709.401 380.668, 710.691 377.966 C 711.735 375.781, 711.359 373.737, 707.951 363.096 C 705.778 356.311, 704 350.139, 704 349.380 C 704 347.426, 700.601 347.667, 698.783 349.750 M 904.729 349.747 C 895.521 359.922, 890.945 385.808, 899.570 378.937 C 907.481 372.633, 908.740 372.402, 910.117 376.996 C 911.398 381.270, 912.899 381.958, 915.429 379.429 C 917.789 377.068, 917.364 373.673, 913.057 360.500 C 909.039 348.212, 907.692 346.473, 904.729 349.747 M 1087.118 349.882 C 1083.834 353.166, 1075.216 377.515, 1076.320 380.392 C 1077.204 382.696, 1077.935 382.465, 1083.877 378 C 1090.282 373.187, 1091.855 373.024, 1092.667 377.086 C 1093.431 380.903, 1095.457 381.801, 1098.037 379.466 C 1100.656 377.096, 1100.632 376.903, 1095.799 361.440 C 1091.469 347.588, 1090.587 346.413, 1087.118 349.882 M 601.702 356.020 C 598.320 358.680, 596.101 367.732, 597.876 371.627 C 600.615 377.639, 610.807 371.920, 611.707 363.868 C 612.587 355.990, 607.156 351.730, 601.702 356.020 M 632 357.500 C 632 361.550, 633.680 361.996, 639.604 359.521 C 643.759 357.785, 643.351 356.469, 638.214 355.043 C 632.503 353.457, 632 353.656, 632 357.500 M 1174 354.931 C 1168.851 356.201, 1165.170 369.170, 1168.899 372.899 C 1173.018 377.018, 1180.907 372.006, 1181.725 364.749 C 1182.513 357.754, 1179.269 353.631, 1174 354.931 M 1300.834 355.395 C 1295.772 357.918, 1293.002 370.487, 1296.905 373.221 C 1303.750 378.015, 1312.698 366.881, 1308.714 358.527 C 1306.939 354.804, 1304.202 353.716, 1300.834 355.395 M 1329.667 354.667 C 1328.295 356.038, 1328.973 361, 1330.532 361 C 1332.956 361, 1339 358.206, 1339 357.086 C 1339 354.839, 1331.451 352.882, 1329.667 354.667 M 843 363.500 C 843 373.577, 843.288 373.699, 850.521 366.693 C 858.637 358.833, 857.462 355, 846.935 355 C 843 355, 843 355, 843 363.500 M 963.268 363.077 C 963.938 372.855, 963.967 372.890, 968.470 369.455 C 979.416 361.106, 978.672 355, 966.708 355 C 962.714 355, 962.714 355, 963.268 363.077 M 902.759 366.075 C 900.731 372.418, 900.787 372.542, 904.382 369.676 C 907.064 367.538, 907.126 367.295, 905.822 364.099 C 904.459 360.759, 904.459 360.759, 902.759 366.075 M 1085.604 365.981 C 1083.427 372.034, 1083.694 372.657, 1087.194 369.706 C 1089.606 367.671, 1089.717 367.243, 1088.627 364.182 C 1087.444 360.864, 1087.444 360.864, 1085.604 365.981 M 696.782 367.003 C 695.182 372.007, 695.182 372.007, 698.091 369.935 C 701.233 367.698, 701.269 367.607, 700.370 364.250 C 699.450 360.817, 698.536 361.519, 696.782 367.003" stroke="none" fill="#59a8ad" fill-rule="evenodd"/><path d="M 118 178.500 C 118 200, 118 200, 130.491 200 C 142.982 200, 142.982 200, 143.241 250.750 C 143.445 290.707, 143.766 301.447, 144.750 301.250 C 145.438 301.113, 146 301.702, 146 302.559 C 146 303.416, 146.450 303.840, 147 303.500 C 147.550 303.160, 148 303.584, 148 304.441 C 148 305.298, 148.450 306, 149 306 C 149.550 306, 150 306.712, 150 307.583 C 150 308.454, 150.563 308.971, 151.250 308.732 C 152.479 308.305, 169.023 324.933, 170 327.578 C 170.275 328.322, 170.372 299.921, 170.215 264.465 C 169.930 200, 169.930 200, 182.465 200 C 195 200, 195 200, 195 178.500 C 195 157, 195 157, 156.500 157 C 118 157, 118 157, 118 178.500 M 443 209 C 443 222, 443 222, 454.577 222 C 466.153 222, 466.153 222, 465.827 268.250 C 465.500 314.500, 465.500 314.500, 475 314.500 C 484.500 314.500, 484.500 314.500, 484.760 268.250 C 485.020 222, 485.020 222, 496.010 222 C 507 222, 507 222, 507 209 C 507 196, 507 196, 475 196 C 443 196, 443 196, 443 209 M 107 329.376 C 107 330.310, 105.313 330.903, 101.750 331.220 C 95.433 331.783, 84.595 336.664, 81.500 340.340 C 80.950 340.993, 79.162 342.385, 77.526 343.434 C 64.651 351.685, 37 385.273, 37 392.660 C 37 393.397, 36.325 394, 35.500 394 C 34.417 394, 34 395.111, 34 398 C 34 400.889, 34.417 402, 35.500 402 C 36.371 402, 37 402.907, 37 404.164 C 37 406.264, 47.262 416.725, 80.500 448.507 C 102.259 469.313, 115.918 475.234, 115.985 463.891 C 115.997 461.845, 113.109 458.484, 102.599 448.315 C 85.575 431.841, 79.390 424.519, 72.185 412.306 C 64.114 398.627, 64.146 400.262, 71.761 390.791 C 82.330 377.645, 91.038 367.568, 92.580 366.700 C 93.361 366.260, 94 365.456, 94 364.912 C 94 362.739, 108.140 345.651, 112.507 342.546 C 118.705 338.138, 122.036 331, 117.893 331 C 117.402 331, 117 330.325, 117 329.500 C 117 328.367, 115.778 328, 112 328 C 108.422 328, 107 328.391, 107 329.376 M 143.325 405.500 C 143.500 466.500, 143.500 466.500, 156.750 466.779 C 170 467.058, 170 467.058, 170.101 429.779 C 170.156 409.276, 170.377 387.816, 170.592 382.092 C 170.807 376.368, 170.766 371.901, 170.501 372.166 C 170.236 372.431, 167.221 370.058, 163.801 366.893 C 160.381 363.728, 157.135 361.220, 156.587 361.319 C 156.039 361.419, 155.570 360.949, 155.545 360.276 C 155.520 359.603, 153.848 357.353, 151.829 355.276 C 145.766 349.039, 144.277 347.316, 143.700 345.875 C 143.397 345.119, 143.228 371.950, 143.325 405.500" stroke="none" fill="#007ad8" fill-rule="evenodd"/><path d="M 226 158 C 226 158.550, 225.100 159, 224 159 C 222.889 159, 222 159.667, 222 160.500 C 222 161.325, 221.361 162, 220.579 162 C 219.798 162, 218.862 163.350, 218.500 165 C 218.138 166.650, 217.222 168, 216.466 168 C 215.667 168, 214.799 169.572, 214.394 171.750 C 214.012 173.813, 212.979 176.605, 212.099 177.955 C 210.414 180.542, 208.878 302, 210.530 302 C 211.183 302, 225 288.119, 225 287.463 C 225 287.299, 227.656 284.400, 230.901 281.021 C 236.803 274.877, 236.803 274.877, 237.151 241.116 C 237.521 205.305, 237.705 204, 242.379 204 C 243.216 204, 244.373 203.213, 244.950 202.250 C 245.950 200.583, 246.050 200.583, 247.050 202.250 C 247.627 203.213, 248.784 204, 249.621 204 C 254.085 204, 254.484 206.096, 254.801 231.177 C 255.121 256.556, 255.234 257.030, 259.587 251.250 C 261.141 249.188, 266.369 243.530, 271.206 238.678 C 280 229.855, 280 229.855, 280 222.487 C 280 218.434, 280.399 214.871, 280.887 214.570 C 281.374 214.269, 282.082 212.377, 282.459 210.367 C 283.296 205.905, 285.060 204, 288.355 204 C 289.894 204, 291.029 203.328, 291.311 202.250 C 291.746 200.583, 291.774 200.583, 291.884 202.250 C 291.961 203.415, 292.829 204, 294.481 204 C 296.293 204, 297.131 204.674, 297.589 206.500 C 298.463 209.979, 297.860 210.426, 312.113 195.750 C 325.108 182.368, 327.706 177.976, 323.563 176.386 C 322.773 176.083, 322.380 175.172, 322.691 174.363 C 323.248 172.911, 320.207 165.814, 318.750 165.167 C 318.337 164.983, 318 164.196, 318 163.417 C 318 162.637, 317.325 162, 316.500 162 C 315.675 162, 315 161.325, 315 160.500 C 315 159.667, 314.111 159, 313 159 C 311.900 159, 311 158.550, 311 158 C 311 157.376, 305.167 157, 295.500 157 C 285.833 157, 280 157.376, 280 158 C 280 158.550, 279.311 159, 278.469 159 C 277.626 159, 276.678 159.675, 276.362 160.500 C 276.045 161.325, 275.195 162, 274.472 162 C 273.750 162, 272.862 163.350, 272.500 165 C 272.138 166.650, 271.479 168, 271.036 168 C 270.593 168, 269.891 170.588, 269.477 173.750 C 268.723 179.500, 268.723 179.500, 267.052 172.563 C 266.132 168.748, 264.844 165.448, 264.190 165.230 C 263.535 165.012, 263 164.196, 263 163.417 C 263 162.637, 262.325 162, 261.500 162 C 260.675 162, 260 161.518, 260 160.929 C 260 157.593, 257.219 157, 241.571 157 C 231.857 157, 226 157.376, 226 158 M 723 255.500 C 723 315, 723 315, 731.987 315 C 740.974 315, 740.974 315, 741.237 279.965 C 741.500 244.931, 741.500 244.931, 748.500 271.461 C 755.753 298.949, 767.629 310.179, 772.072 293.750 C 772.704 291.413, 776.062 278.475, 779.534 265 C 785.847 240.500, 785.847 240.500, 785.924 277.750 C 786 315, 786 315, 795 315 C 804 315, 804 315, 804 255.468 C 804 179.176, 788.266 165.961, 772.487 229 C 768.012 246.875, 764.158 262.068, 763.922 262.763 C 763.685 263.457, 759.923 250.182, 755.562 233.263 C 751.201 216.343, 747.244 201.037, 746.769 199.250 C 737.825 165.584, 723 200.668, 723 255.500 M 324.750 211.724 C 323.788 212.787, 323 214.117, 323 214.679 C 323 215.241, 321.650 216.735, 320 218 C 318.350 219.265, 317 220.714, 317 221.221 C 317 221.728, 315.003 224.248, 312.561 226.821 C 304.118 235.722, 300.495 239.824, 299.250 241.894 C 298.270 243.523, 298 267.411, 298 352.287 C 298 436.836, 298.274 461.192, 299.250 463.293 C 300.673 466.358, 325.424 467.679, 326.539 464.750 C 328.201 460.383, 326.430 209.867, 324.750 211.724 M 278 265.967 C 278 266.498, 276.533 268.411, 274.741 270.217 C 271.440 273.543, 261.377 285.236, 257.244 290.548 C 246.391 304.501, 256.044 465.512, 267.750 465.781 C 280 466.062, 280 466.062, 280 365.531 C 280 299.177, 279.660 265, 279 265 C 278.450 265, 278 265.435, 278 265.967 M 233.944 317.079 C 232.738 318.772, 230.795 321.180, 229.626 322.430 C 225.087 327.283, 220.227 332.750, 215.220 338.636 C 201.155 355.169, 208.361 466, 223.500 466 C 237 466, 237 466, 237 390 C 237 348.200, 236.806 314, 236.568 314 C 236.331 314, 235.150 315.385, 233.944 317.079" stroke="none" fill="#cb1c1c" fill-rule="evenodd"/><path d="M 431 55.705 C 427.751 56.268, 398.089 86.670, 324.169 165.205 C 321.234 168.323, 320.884 169.155, 321.959 170.450 C 322.661 171.297, 323.008 172.863, 322.729 173.930 C 322.443 175.020, 322.798 176.092, 323.538 176.376 C 324.263 176.654, 325.001 178.073, 325.178 179.528 C 325.500 182.175, 325.500 182.175, 329.182 178.338 C 335.525 171.727, 343 163.696, 343 163.492 C 343 163.384, 347.387 158.774, 352.750 153.247 C 358.113 147.719, 367.675 137.718, 374 131.022 C 396.630 107.064, 405.649 97.596, 415.750 87.195 C 421.387 81.390, 426 76.534, 426 76.404 C 426 76.273, 428.935 73.092, 432.523 69.333 C 436.110 65.575, 439.636 61.825, 440.359 61 C 441.898 59.242, 443.663 56.194, 442.579 57.165 C 442.171 57.531, 440.313 57.193, 438.451 56.415 C 436.588 55.637, 434.712 55.061, 434.282 55.136 C 433.852 55.211, 432.375 55.467, 431 55.705 M 596.732 195.037 C 563.418 200.641, 562.176 255.769, 595.065 269.026 C 604.349 272.769, 606.589 275.570, 605.685 282.309 C 604.332 292.396, 593.001 293.581, 574.720 285.545 C 573.056 284.814, 572.958 285.632, 573.220 298.128 C 573.548 313.781, 576.460 316.335, 594 316.356 C 628.498 316.396, 637.803 257.812, 605.500 243.954 C 592.710 238.467, 592.087 238.038, 590.988 233.955 C 587.998 222.853, 600.634 217.006, 615.876 222.440 C 618.282 223.298, 620.420 224, 620.626 224 C 622.981 224, 620.694 198.116, 618.250 197.107 C 615.566 195.998, 604.492 193.901, 602.500 194.123 C 601.950 194.185, 599.354 194.596, 596.732 195.037 M 1062.332 196.851 C 1043.037 203.519, 1033.732 222.719, 1033.665 256 C 1033.570 303.006, 1052.856 323.539, 1089.250 315.179 C 1100.818 312.522, 1097.716 257, 1086 257 C 1077 257, 1077 257, 1077 273.624 C 1077 299.389, 1057.976 294.827, 1053.779 268.056 C 1048.401 233.739, 1063.567 215.506, 1090.780 223.573 C 1093.060 224.249, 1093.060 224.249, 1092.780 210.983 C 1092.500 197.718, 1092.500 197.718, 1088 196.374 C 1081.550 194.448, 1068.589 194.689, 1062.332 196.851 M 520.393 199.722 C 520.004 201.800, 514.887 228.587, 509.022 259.250 C 498.358 315, 498.358 315, 507.565 315 C 516.772 315, 516.772 315, 518.912 303.250 C 520.089 296.788, 521.301 290.262, 521.605 288.750 C 522.159 286, 522.159 286, 534.509 286 C 548.471 286, 546.690 283.814, 550.604 305.750 C 552.254 315, 552.254 315, 561.602 315 C 570.950 315, 570.950 315, 570.417 312.250 C 570.123 310.738, 565.046 284.075, 559.135 253 C 549.016 199.808, 526.244 168.492, 520.393 199.722 M 632.783 249 C 632.664 278.150, 632.552 304.813, 632.533 308.250 C 632.500 314.500, 632.500 314.500, 642.250 314.786 C 652 315.072, 652 315.072, 652 292.036 C 652 259.570, 653.059 259.567, 665.604 291.999 C 674.500 314.997, 674.500 314.997, 684.857 314.999 C 692.750 315, 695.092 314.703, 694.701 313.750 C 669.308 251.827, 670.056 257.301, 682.500 224.429 C 688.275 209.173, 693 196.536, 693 196.346 C 693 182.996, 672.051 199.158, 664.932 218 C 657.406 237.920, 656.402 240, 654.310 240 C 652 240, 652 240, 652 218 C 652 196, 652 196, 642.500 196 C 633 196, 633 196, 632.783 249 M 832 196.941 C 832 197.459, 827.050 223.749, 821 255.365 C 814.950 286.980, 810 313.332, 810 313.924 C 810 315.965, 827.778 315.312, 828.355 313.250 C 828.625 312.288, 829.858 305.762, 831.095 298.750 C 833.135 287.186, 854.772 278.026, 858.258 287.250 C 858.518 287.938, 859.769 294.462, 861.039 301.750 C 863.346 315, 863.346 315, 872.782 315 C 882.055 315, 882.208 314.961, 881.693 312.750 C 881.406 311.512, 876.297 284.738, 870.341 253.250 C 861.090 204.341, 832 161.619, 832 196.941 M 888 255.500 C 888 315, 888 315, 896.987 315 C 905.974 315, 905.974 315, 906.237 280.456 C 906.500 245.912, 906.500 245.912, 920.057 280.206 C 943.860 340.422, 953 333.578, 953 255.536 C 953 196, 953 196, 944 196 C 935 196, 935 196, 934.940 231.250 C 934.880 266.500, 934.880 266.500, 920.858 231.250 C 896.681 170.471, 888 176.878, 888 255.500 M 970.612 252.750 C 964.667 283.962, 959.566 310.738, 959.276 312.250 C 958.688 315.322, 976.115 316.776, 977.258 313.750 C 977.518 313.063, 978.772 306.525, 980.044 299.221 C 983.751 277.936, 1006.139 279.081, 1009.942 300.750 C 1012.035 312.682, 1031 325.029, 1031 314.460 C 1031 313.027, 1008.745 197.401, 1008.344 196.750 C 996.010 176.731, 980.789 199.322, 970.612 252.750 M 1106 255.500 C 1106 315, 1106 315, 1133 315 C 1160 315, 1160 315, 1160 302.500 C 1160 290, 1160 290, 1142.500 290 C 1125 290, 1125 290, 1125 278.500 C 1125 267, 1125 267, 1140 267 C 1155 267, 1155 267, 1155 254.500 C 1155 242, 1155 242, 1140 242 C 1125 242, 1125 242, 1125 232 C 1125 222, 1125 222, 1142 222 C 1159 222, 1159 222, 1159 209 C 1159 196, 1159 196, 1132.500 196 C 1106 196, 1106 196, 1106 255.500 M 1169 255.500 C 1169 315, 1169 315, 1177.987 315 C 1186.974 315, 1186.974 315, 1187.237 280.398 C 1187.500 245.796, 1187.500 245.796, 1194.474 271.898 C 1200.558 294.672, 1215.425 311.712, 1217.029 297.750 C 1221.423 259.497, 1231.868 245.855, 1231.929 278.289 C 1232 316.078, 1232 316.078, 1240.750 315.789 C 1256.722 315.262, 1254.046 196.500, 1238.062 196.500 C 1226.625 196.500, 1226.625 196.500, 1218.488 229 C 1214.013 246.875, 1210.135 262.138, 1209.870 262.917 C 1209.464 264.112, 1204.999 247.734, 1193.737 203.750 C 1183.939 165.482, 1169 196.735, 1169 255.500 M 1261 256.016 C 1261 313.917, 1313.533 359.567, 1314.780 302.750 C 1315.060 290, 1315.060 290, 1297.530 290 C 1280 290, 1280 290, 1280 278.500 C 1280 267, 1280 267, 1294.500 267 C 1309 267, 1309 267, 1309 254.500 C 1309 242, 1309 242, 1294.500 242 C 1280 242, 1280 242, 1280 232 C 1280 222, 1280 222, 1297 222 C 1314 222, 1314 222, 1314 209 C 1314 196, 1314 196, 1287.500 196 C 1261 196, 1261 196, 1261 256.016 M 1324 256.001 C 1324 316.078, 1324 316.078, 1332.750 315.789 C 1341.500 315.500, 1341.500 315.500, 1341.817 281 C 1342.135 246.500, 1342.135 246.500, 1355.851 281 C 1369.567 315.500, 1369.567 315.500, 1379.034 315.500 C 1393.454 315.500, 1394.167 196.687, 1379.750 196.211 C 1371 195.922, 1371 195.922, 1370.894 231.711 C 1370.819 256.798, 1370.486 266.752, 1369.781 265 C 1369.228 263.625, 1362.863 247.650, 1355.638 229.500 C 1332.332 170.958, 1324 177.937, 1324 256.001 M 1395 209.500 C 1395 223, 1395 223, 1406 223 C 1417 223, 1417 223, 1417 269.538 C 1417 316.075, 1417 316.075, 1426.250 315.788 C 1435.500 315.500, 1435.500 315.500, 1435.760 269.250 C 1436.020 223, 1436.020 223, 1447.010 223 C 1458 223, 1458 223, 1458 209.500 C 1458 196, 1458 196, 1426.500 196 C 1395 196, 1395 196, 1395 209.500 M 291.116 202.250 C 291.049 203.266, 290.198 204, 289.089 204 C 286.785 204, 282 209.412, 282 212.018 C 282 213.043, 281.550 214.160, 281 214.500 C 280.450 214.840, 280 218.245, 280 222.067 C 280 228.291, 283.652 231.379, 284.072 225.509 C 284.112 224.954, 286.249 222.705, 288.822 220.511 C 299.201 211.662, 301.824 204, 294.475 204 C 293.098 204, 291.960 203.285, 291.689 202.250 C 291.254 200.583, 291.226 200.583, 291.116 202.250 M 530.720 238.213 C 528.654 249.921, 526.972 259.837, 526.982 260.250 C 527.021 261.877, 542 261.091, 542 259.462 C 542 258.110, 535.296 219.750, 534.704 217.713 C 534.578 217.280, 532.785 226.505, 530.720 238.213 M 841.673 239.673 C 837.355 263.565, 836.842 261.164, 846.184 260.794 C 852.593 260.540, 852.353 226.020, 845.898 219.565 C 845.623 219.290, 843.722 228.339, 841.673 239.673 M 991.150 237.786 C 989.323 248.079, 987.593 257.512, 987.306 258.750 C 986.796 260.943, 986.991 261, 994.999 261 C 1001.153 261, 1003.097 260.686, 1002.748 259.750 C 1002.491 259.063, 1000.791 249.950, 998.970 239.500 C 997.148 229.050, 995.391 220.179, 995.065 219.786 C 994.739 219.393, 992.977 227.493, 991.150 237.786 M 245.801 247.261 C 231.788 262.144, 232.011 280.131, 246.030 265.758 C 255.059 256.500, 255.059 256.500, 254.780 247.261 C 254.500 238.022, 254.500 238.022, 245.801 247.261 M 69.973 269.648 C 50.515 282.615, 49.967 294.473, 67.948 313.435 C 90.845 337.581, 87.814 335.283, 93.761 333.010 C 96.654 331.905, 100.817 331, 103.011 331 C 105.890 331, 107 330.583, 107 329.500 C 107 328.367, 108.222 328, 112 328 C 115.778 328, 117 328.367, 117 329.500 C 117 330.325, 117.402 331, 117.893 331 C 121.957 331, 118.731 338.120, 112.737 342.382 C 102.367 349.754, 102.366 349.882, 112.500 360.368 C 117.450 365.490, 126.060 374.590, 131.634 380.590 C 143.965 393.865, 142.911 395.101, 143.036 367.223 C 143.140 344.044, 143.140 344.044, 138.070 338.975 C 135.281 336.186, 133 333.800, 133 333.673 C 133 333.545, 128.500 328.787, 123 323.099 C 117.500 317.412, 113 312.673, 113 312.569 C 113 312.465, 108.725 307.993, 103.500 302.630 C 98.275 297.267, 94 292.710, 94 292.502 C 94 292.294, 90.850 288.980, 87 285.138 C 79.280 277.433, 79.090 276.973, 82.064 273.191 C 85.743 268.515, 75.970 265.651, 69.973 269.648 M 207.587 287.180 C 206.697 288.450, 198.214 297.547, 188.735 307.397 C 169.046 327.854, 169.001 327.935, 174.132 333.382 C 178.295 337.802, 176.005 339.536, 200.894 313.124 C 210.289 303.155, 210.289 303.155, 210.077 294.343 C 209.834 284.251, 209.769 284.064, 207.587 287.180 M 337.667 327.667 C 336.105 329.228, 337.027 336.714, 339 338.500 C 340.100 339.495, 341 340.738, 341 341.261 C 341 344.500, 376.625 381.449, 383.603 385.447 C 385.471 386.517, 387 387.764, 387 388.218 C 387 389.307, 381.720 397.403, 380.723 397.842 C 380.296 398.030, 379.052 399.938, 377.959 402.081 C 374.920 408.036, 368.377 417.887, 363.398 424 C 360.935 427.025, 355.290 434, 350.854 439.500 C 346.418 445, 341.459 450.900, 339.834 452.610 C 335.238 457.448, 335.908 465.349, 340.956 465.829 C 343.112 466.034, 344.805 465.623, 345.456 464.736 C 346.030 463.954, 348.152 462.771, 350.170 462.106 C 352.189 461.442, 354.323 460.315, 354.914 459.603 C 355.505 458.891, 357.791 457.496, 359.994 456.503 C 362.197 455.509, 364 454.315, 364 453.848 C 364 453.382, 364.614 453, 365.364 453 C 366.114 453, 367.801 451.945, 369.114 450.656 C 370.426 449.367, 372.738 447.516, 374.250 446.541 C 375.762 445.567, 377 444.395, 377 443.937 C 377 443.478, 380.262 439.791, 384.250 435.743 C 390.671 429.225, 395.150 423.638, 398.578 417.870 C 399.703 415.977, 406.071 407.738, 411.895 400.638 C 418.272 392.865, 419.578 385.973, 416.088 378.500 C 413.977 373.979, 407.482 367, 405.386 367 C 404.624 367, 404 366.562, 404 366.026 C 404 365.490, 402.580 364.317, 400.844 363.419 C 399.108 362.522, 397.196 361.385, 396.594 360.893 C 395.992 360.402, 391.900 358.138, 387.500 355.863 C 383.100 353.588, 379.275 351.381, 379 350.959 C 378.725 350.537, 374.113 348.100, 368.750 345.543 C 363.387 342.986, 359 340.498, 359 340.014 C 359 339.531, 358.212 338.883, 357.250 338.576 C 356.288 338.269, 352.902 335.539, 349.726 332.509 C 344.229 327.263, 339.835 325.499, 337.667 327.667 M 170.844 379.095 C 171.187 385.195, 171.187 385.195, 174.016 382.485 C 176.438 380.164, 173.875 373.065, 170.589 372.998 C 170.540 372.997, 170.655 375.741, 170.844 379.095" stroke="none" fill="#159036" fill-rule="evenodd"/></svg>