<svg xmlns="http://www.w3.org/2000/svg" width="32" height="32" viewBox="0 0 512 512" version="1.1"><path d="M 485.500 21.553 C 481.100 26.224, 476.375 31.355, 475 32.954 C 471.267 37.296, 454.934 54.685, 442.709 67.333 C 436.773 73.473, 430.923 79.957, 429.709 81.742 C 428.494 83.526, 427.155 84.989, 426.732 84.993 C 426.310 84.997, 422.935 88.261, 419.232 92.247 C 415.530 96.232, 411.038 101.002, 409.250 102.847 C 407.462 104.691, 406 106.283, 406 106.383 C 406 106.484, 400.825 111.908, 394.500 118.435 C 388.175 124.963, 383 130.420, 383 130.563 C 383 130.706, 378.725 135.189, 373.500 140.526 C 368.275 145.863, 364 150.627, 364 151.114 C 364 151.601, 363.325 152, 362.500 152 C 361.675 152, 361 152.352, 361 152.783 C 361 153.214, 358.062 156.683, 354.472 160.492 C 343.269 172.375, 339 177.245, 339 178.138 C 339 178.612, 338.572 179, 338.048 179 C 336.997 179, 335.319 180.672, 320 196.976 C 314.225 203.123, 305.675 212.111, 301 216.949 C 296.325 221.788, 287.100 231.454, 280.500 238.430 C 273.900 245.406, 264.788 254.980, 260.250 259.706 C 255.712 264.432, 251.979 268.569, 251.954 268.899 C 251.928 269.230, 250.149 270.850, 248 272.500 C 245.851 274.150, 244.072 275.777, 244.046 276.116 C 244.021 276.454, 241.525 279.307, 238.500 282.456 C 235.475 285.604, 233 288.357, 233 288.573 C 233 288.790, 227.569 294.487, 220.931 301.233 C 214.292 307.980, 204.955 317.704, 200.181 322.842 C 178.210 346.487, 174.970 349.403, 173.306 347.026 C 172.476 345.842, 170.490 343.664, 168.892 342.187 C 167.294 340.709, 164.077 337.505, 161.743 335.066 C 159.409 332.628, 153.068 326.103, 147.652 320.566 C 142.235 315.030, 137.181 309.070, 136.419 307.323 C 135.657 305.575, 134.149 303.865, 133.067 303.521 C 131.985 303.178, 130.140 301.345, 128.968 299.448 C 127.796 297.552, 126.199 296, 125.418 296 C 124.638 296, 124 295.564, 124 295.030 C 124 294.038, 115.493 284.412, 111 280.321 C 109.625 279.069, 108.050 277.546, 107.500 276.936 C 106.950 276.326, 104.475 273.692, 102 271.084 C 99.525 268.476, 95.382 264.015, 92.793 261.171 C 86.822 254.611, 85.873 254.699, 78.044 262.537 C 74.493 266.092, 71.230 269, 70.794 269 C 70.357 269, 70 269.675, 70 270.500 C 70 271.325, 69.611 272, 69.136 272 C 67.501 272, 62.782 279.837, 63.602 281.191 C 64.385 282.483, 70.073 288.576, 83.250 302.240 C 86.962 306.089, 90 309.328, 90 309.437 C 90 309.546, 94.275 314.016, 99.500 319.370 C 104.725 324.724, 109 329.531, 109 330.052 C 109 330.574, 109.675 331, 110.500 331 C 111.325 331, 112 331.381, 112 331.847 C 112 332.313, 114.700 335.532, 118 339 C 121.300 342.468, 124 345.401, 124 345.517 C 124 345.893, 133.539 355.377, 138.337 359.771 C 140.902 362.119, 143 364.482, 143 365.021 C 143 365.559, 143.563 366.003, 144.250 366.007 C 144.938 366.011, 146.625 367.676, 148 369.708 C 149.375 371.740, 155.338 378.257, 161.250 384.190 C 167.162 390.124, 172 395.434, 172 395.989 C 172 398.205, 177.574 396.869, 180.417 393.972 C 182.021 392.337, 183.708 391, 184.167 391 C 184.625 391, 185 390.328, 185 389.506 C 185 388.684, 187.023 385.959, 189.496 383.451 C 191.969 380.943, 197.155 375.134, 201.022 370.542 C 204.888 365.951, 208.715 361.940, 209.526 361.628 C 210.337 361.317, 211 360.411, 211 359.615 C 211 358.818, 211.338 358.017, 211.750 357.833 C 212.163 357.650, 214.957 354.575, 217.959 351 C 222.782 345.259, 226.850 340.729, 234.750 332.308 C 235.988 330.988, 237 329.480, 237 328.955 C 237 328.430, 237.398 328, 237.883 328 C 238.369 328, 239.001 327.102, 239.288 326.005 C 239.575 324.908, 240.640 323.706, 241.655 323.334 C 243.620 322.613, 245.430 320.840, 253.750 311.477 C 256.637 308.228, 259 304.991, 259 304.285 C 259 303.578, 259.395 303, 259.878 303 C 260.362 303, 262.718 300.413, 265.114 297.250 C 268.845 292.327, 276.197 283.526, 283.532 275.203 C 285.305 273.191, 287.674 270.823, 294.329 264.408 C 297.254 261.589, 301.953 256.151, 305 252.060 C 306.375 250.213, 308.435 247.757, 309.577 246.601 C 310.719 245.446, 312.519 242.993, 313.577 241.152 C 315.432 237.923, 317.411 235.641, 328.750 223.664 C 331.637 220.614, 334 217.751, 334 217.302 C 334 216.853, 335.575 215.041, 337.500 213.274 C 339.425 211.507, 341 209.411, 341 208.616 C 341 207.821, 343.253 205.517, 346.006 203.496 C 348.759 201.474, 351.675 198.849, 352.485 197.660 C 355.035 193.922, 358.287 190.122, 365.250 182.746 C 368.962 178.813, 372 175.224, 372 174.769 C 372 174.315, 373.332 172.493, 374.959 170.722 C 383.441 161.489, 387 157.180, 387 156.146 C 387 155.516, 387.659 155, 388.465 155 C 389.270 155, 390.430 154.066, 391.041 152.924 C 392.406 150.373, 393.296 149.301, 401.352 140.500 C 409.632 131.454, 414 126.359, 414 125.747 C 414 125.478, 416.720 122.387, 420.045 118.879 C 423.370 115.371, 426.728 111.317, 427.508 109.871 C 428.288 108.425, 429.618 106.977, 430.463 106.653 C 431.308 106.328, 432 105.479, 432 104.766 C 432 104.053, 434.700 101.045, 438 98.083 C 441.300 95.120, 444 92.197, 444 91.587 C 444 90.977, 445.350 89.363, 447 88 C 448.650 86.637, 450 84.965, 450 84.284 C 450 83.603, 451.125 82.309, 452.500 81.408 C 453.875 80.507, 455 79.133, 455 78.354 C 455 77.575, 455.675 76.678, 456.500 76.362 C 457.325 76.045, 458 75.184, 458 74.448 C 458 73.713, 460.250 71.173, 463 68.805 C 465.749 66.437, 467.999 63.923, 468 63.219 C 468 62.514, 468.675 61.678, 469.500 61.362 C 470.325 61.045, 471.003 60.272, 471.007 59.643 C 471.011 59.014, 474.657 54.675, 479.108 50 C 483.560 45.325, 487.832 40.285, 488.601 38.800 C 489.371 37.315, 490.579 35.740, 491.287 35.300 C 491.996 34.860, 494.541 32.138, 496.944 29.250 C 499.347 26.362, 501.918 24, 502.657 24 C 506.597 24, 504.114 16.448, 499.750 15.162 C 497.413 14.472, 495.050 13.717, 494.500 13.484 C 493.950 13.250, 489.900 16.881, 485.500 21.553" stroke="none" fill="#a5adbb" fill-rule="evenodd"/><path d="M 462.228 28.659 C 460.428 29.546, 454.335 35.048, 448.689 40.886 C 428.290 61.975, 411.855 79.170, 376.176 116.750 C 340.951 153.851, 338 156.692, 338 153.500 C 338 152.675, 337.550 152, 337 152 C 336.450 152, 336 151.283, 336 150.406 C 336 149.530, 335.100 148.577, 334 148.290 C 332.900 148.002, 332 147.144, 332 146.383 C 332 145.623, 331.100 145, 330 145 C 328.900 145, 328 144.550, 328 144 C 328 142.452, 293.511 142.684, 290.845 144.250 C 286.945 146.541, 284.145 149.574, 283.479 152.228 C 283.116 153.673, 282.185 155.099, 281.410 155.396 C 280.571 155.718, 280 157.344, 280 159.410 C 280 161.319, 279.594 163.133, 279.097 163.440 C 278.028 164.101, 276 158.742, 276 155.257 C 276 153.654, 275.312 152.633, 274 152.290 C 272.900 152.002, 272 151.225, 272 150.563 C 272 144.601, 266.952 143, 248.161 143 C 236.720 143, 230 143.370, 230 144 C 230 144.550, 229.086 145, 227.969 145 C 226.851 145, 225.678 145.675, 225.362 146.500 C 225.045 147.325, 224.215 148, 223.518 148 C 222.821 148, 221.983 149.336, 221.656 150.969 C 221.330 152.602, 220.160 154.840, 219.057 155.943 C 217.953 157.047, 216.785 159.198, 216.460 160.725 C 216.134 162.251, 215.111 164.850, 214.185 166.500 C 212.671 169.199, 212.466 175.516, 212.152 229.387 C 211.761 296.556, 215.175 286.674, 179.638 323.500 C 167.094 336.500, 167.094 336.500, 167.297 264.500 C 167.500 192.500, 167.500 192.500, 181.250 192.222 C 195 191.944, 195 191.944, 195 167.461 C 195 142.979, 195 142.979, 150.750 143.240 C 106.500 143.500, 106.500 143.500, 106.208 164.500 C 105.788 194.656, 104.283 191.891, 121.290 192.223 C 135.500 192.500, 135.500 192.500, 135.715 249 C 135.969 315.580, 134.592 307.076, 147.225 320.066 C 152.876 325.877, 159.409 332.627, 161.743 335.066 C 164.077 337.505, 167.294 340.709, 168.892 342.187 C 170.490 343.664, 172.476 345.842, 173.306 347.026 C 174.970 349.403, 178.210 346.487, 200.181 322.842 C 204.955 317.704, 214.292 307.980, 220.931 301.233 C 227.569 294.487, 233 288.790, 233 288.573 C 233 288.357, 235.475 285.604, 238.500 282.456 C 241.525 279.307, 244.021 276.454, 244.046 276.116 C 244.072 275.777, 245.851 274.150, 248 272.500 C 250.149 270.850, 251.928 269.230, 251.954 268.899 C 251.979 268.569, 255.713 264.432, 260.250 259.706 C 264.788 254.980, 273.900 245.406, 280.500 238.430 C 287.100 231.454, 296.325 221.788, 301 216.949 C 305.675 212.111, 314.225 203.123, 320 196.976 C 335.319 180.672, 336.997 179, 338.048 179 C 338.572 179, 339 178.612, 339 178.138 C 339 177.245, 343.269 172.375, 354.472 160.492 C 358.062 156.683, 361 153.214, 361 152.783 C 361 152.352, 361.675 152, 362.500 152 C 363.325 152, 364 151.601, 364 151.114 C 364 150.627, 368.275 145.863, 373.500 140.526 C 378.725 135.189, 383 130.706, 383 130.563 C 383 130.420, 388.175 124.963, 394.500 118.435 C 400.825 111.908, 406 106.484, 406 106.383 C 406 106.283, 407.462 104.691, 409.250 102.847 C 411.038 101.002, 415.530 96.232, 419.232 92.247 C 422.935 88.261, 426.310 84.997, 426.732 84.993 C 427.155 84.989, 428.494 83.526, 429.709 81.742 C 430.923 79.957, 436.773 73.473, 442.709 67.333 C 448.644 61.192, 457.775 51.582, 463 45.977 C 468.225 40.372, 473.405 34.821, 474.510 33.643 C 478.027 29.894, 479.850 27.226, 477.793 28.837 C 476.354 29.963, 475.729 29.924, 473.820 28.587 C 470.939 26.568, 466.412 26.596, 462.228 28.659 M 251.638 195.500 C 251.322 196.325, 250.374 197, 249.531 197 C 244.083 197, 243.607 199.408, 243.219 228.960 C 242.857 256.500, 242.857 256.500, 252.928 246.404 C 265.347 233.955, 268.658 197, 257.355 197 C 256.025 197, 254.678 196.325, 254.362 195.500 C 254.045 194.675, 253.432 194, 253 194 C 252.568 194, 251.955 194.675, 251.638 195.500 M 344.241 204.777 C 342.449 206.275, 340.986 208.076, 340.991 208.781 C 340.996 209.485, 339.425 211.507, 337.500 213.274 C 335.575 215.041, 334 216.853, 334 217.302 C 334 217.751, 331.637 220.614, 328.750 223.664 C 318.393 234.604, 315.481 237.869, 314.220 239.954 C 312.624 242.591, 312.401 490.294, 313.990 494.474 C 315.089 497.364, 342.075 498.525, 344.800 495.800 C 345.722 494.878, 346 461.022, 346 349.500 C 346 237.978, 346.278 204.122, 347.200 203.200 C 349.358 201.042, 347.572 201.993, 344.241 204.777 M 288.836 269.491 C 283.123 275.470, 271.402 289.071, 266.250 295.701 C 262.782 300.163, 260.813 492.413, 264.200 495.800 C 265.565 497.165, 288.670 497.497, 290.742 496.181 C 291.759 495.535, 293.349 266, 292.336 266 C 292.246 266, 290.671 267.571, 288.836 269.491 M 50.986 272.754 C 29.448 286.604, 29.421 300.816, 50.891 323.272 C 68.586 341.780, 73.351 346.990, 72.906 347.349 C 72.683 347.528, 69.898 349.377, 66.717 351.457 C 54.079 359.721, 34.110 379.715, 25.385 392.841 C 17.179 405.187, 14 410.596, 14 412.213 C 14 413.196, 13.325 414, 12.500 414 C 11.389 414, 11 415.167, 11 418.500 C 11 421.833, 11.389 423, 12.500 423 C 13.432 423, 14 423.943, 14 425.489 C 14 427.280, 16.173 430.085, 21.750 435.494 C 26.013 439.628, 39.625 452.976, 52 465.156 C 64.375 477.336, 76.909 488.922, 79.854 490.901 C 96.196 501.886, 105 503.119, 105 494.421 C 105 490.923, 105.086 491.021, 85.955 472.500 C 68.133 455.246, 54.490 437.413, 47.940 422.809 C 46.566 419.747, 48.166 417.444, 67.473 394.677 C 77.845 382.447, 81.962 377.292, 86.720 370.577 C 100.674 350.883, 135.477 410.482, 136 454.966 C 136.821 524.842, 166.356 521.516, 166.775 451.500 C 167.051 405.500, 167.051 405.500, 170.424 401.628 C 174.391 397.075, 174.768 397.736, 159.512 382.500 C 154.555 377.550, 149.375 371.816, 148 369.757 C 146.625 367.698, 144.938 366.011, 144.250 366.007 C 143.563 366.003, 143 365.559, 143 365.021 C 143 364.482, 140.902 362.119, 138.337 359.771 C 133.539 355.377, 124 345.893, 124 345.517 C 124 345.401, 121.300 342.468, 118 339 C 114.700 335.532, 112 332.313, 112 331.847 C 112 331.381, 111.325 331, 110.500 331 C 109.675 331, 109 330.574, 109 330.052 C 109 329.531, 104.725 324.724, 99.500 319.370 C 94.275 314.016, 90 309.546, 90 309.437 C 90 309.328, 86.963 306.098, 83.250 302.259 C 60.815 279.063, 61.974 280.779, 65.502 275.997 C 70.074 269.800, 59.317 267.397, 50.986 272.754 M 240.200 324.200 C 239.540 324.860, 239 325.985, 239 326.700 C 239 327.415, 238.550 328, 238 328 C 237.450 328, 237 328.430, 237 328.955 C 237 329.480, 235.988 330.988, 234.750 332.308 C 226.850 340.729, 222.782 345.259, 217.959 351 C 214.957 354.575, 212.275 357.612, 212 357.750 C 210.781 358.359, 212.032 495.402, 213.264 496.184 C 214.712 497.104, 239.095 497.285, 241.418 496.393 C 243.153 495.727, 243.932 323, 242.200 323 C 241.760 323, 240.860 323.540, 240.200 324.200 M 358.200 338.200 C 356.267 340.133, 356.768 348.147, 359 351 C 360.076 352.375, 360.966 353.866, 360.978 354.314 C 361 355.129, 363.021 357.501, 370.500 365.492 C 372.700 367.842, 378.550 374.146, 383.500 379.499 C 388.450 384.853, 393.850 390.417, 395.500 391.863 C 397.150 393.310, 400.311 396.295, 402.524 398.497 C 404.737 400.699, 408.221 403.625, 410.267 405 C 414.686 407.970, 414.695 408.021, 411.500 411.818 C 410.125 413.452, 409 415.217, 409 415.739 C 409 416.262, 408.048 417.547, 406.885 418.595 C 405.722 419.643, 404.408 421.448, 403.964 422.607 C 403.521 423.765, 401.435 427.310, 399.329 430.483 C 397.223 433.655, 395.050 436.992, 394.500 437.897 C 392.422 441.314, 388.952 445.840, 385.921 449.085 C 384.194 450.933, 382.380 453.358, 381.891 454.473 C 381.401 455.588, 375.606 462.800, 369.014 470.500 C 356.448 485.176, 353.792 491.392, 358.200 495.800 C 360.256 497.856, 366.107 497.306, 366.710 495 C 366.998 493.900, 368.014 493, 368.968 493 C 370.712 493, 380.067 488.406, 381 487.091 C 381.275 486.703, 382.962 485.795, 384.750 485.072 C 386.538 484.349, 388 483.362, 388 482.879 C 388 482.395, 388.590 482, 389.310 482 C 390.031 482, 391.943 480.737, 393.560 479.194 C 395.177 477.650, 397.962 475.370, 399.750 474.126 C 401.538 472.882, 403 471.526, 403 471.114 C 403 470.701, 406.492 466.794, 410.760 462.432 C 418.306 454.718, 423.734 447.880, 427.195 441.723 C 428.128 440.065, 430.194 437.311, 431.787 435.604 C 433.379 433.897, 435.742 430.925, 437.036 429 C 438.331 427.075, 441.237 423.250, 443.495 420.500 C 449.981 412.601, 451.698 405.596, 448.931 398.318 C 447.385 394.253, 440.149 385.182, 437.877 384.461 C 436.810 384.122, 434.939 382.796, 433.719 381.513 C 431.708 379.399, 428.101 377.308, 411.041 368.362 C 408.039 366.788, 404.900 364.868, 404.065 364.095 C 403.230 363.322, 400.286 361.625, 397.523 360.324 C 385.316 354.577, 378.267 349.909, 370.749 342.595 C 364.856 336.862, 360.917 335.483, 358.200 338.200" stroke="none" fill="#a5adbb" fill-rule="evenodd"/></svg>